<svg width="201" height="241" viewBox="0 0 201 241" fill="none" xmlns="http://www.w3.org/2000/svg">
<defs>
<clipPath id="clip0_105_17">
<rect width="201" height="241" fill="white"/>
</clipPath>
</defs>
<g clip-path="url(#clip0_105_17)">
<g opacity="0.3">
<path opacity="0.3" d="M140.1 49.25C134.633 49.2447 129.391 47.0704 125.525 43.2046C121.66 39.3387 119.485 34.097 119.48 28.6299V0H27.3401C20.2031 0 13.3584 2.83523 8.31177 7.88184C3.26516 12.9284 0.429932 19.7729 0.429932 26.9099V189.13C0.429932 196.267 3.26516 203.112 8.31177 208.158C13.3584 213.205 20.2031 216.04 27.3401 216.04H137.94C145.077 216.04 151.922 213.205 156.968 208.158C162.015 203.112 164.85 196.267 164.85 189.13V49.25H140.1Z" fill="#00C650"/>
</g>
<path d="M164.85 49.25H140.1C134.633 49.2447 129.391 47.0704 125.525 43.2046C121.66 39.3387 119.485 34.097 119.48 28.6299V0L164.85 49.25Z" fill="#00C650"/>
<path d="M184.37 170.61H59.3301C50.4604 170.61 43.27 177.8 43.27 186.67V223.95C43.27 232.82 50.4604 240.01 59.3301 240.01H184.37C193.24 240.01 200.43 232.82 200.43 223.95V186.67C200.43 177.8 193.24 170.61 184.37 170.61Z" fill="#00C650"/>
<path d="M87.8601 213.38V220.65H80.3301V213.38H87.8601Z" fill="white"/>
<path d="M109.89 220.65L103.56 211.29L98.1101 220.65H89.78L99.3899 205.17L89.48 190.58H98.1101L104.28 199.64L109.6 190.58H117.89L108.41 205.72L118.53 220.65H109.89Z" fill="white"/>
<path d="M163.299 216.57C162.436 217.951 161.198 219.057 159.729 219.76C157.941 220.597 155.982 221.005 154.009 220.95C151.032 221.075 148.098 220.206 145.669 218.48C144.595 217.673 143.716 216.635 143.098 215.443C142.48 214.25 142.138 212.933 142.099 211.59H149.839C149.894 212.603 150.326 213.559 151.049 214.27C151.769 214.941 152.725 215.301 153.709 215.27C154.11 215.293 154.512 215.238 154.891 215.105C155.27 214.973 155.62 214.767 155.919 214.5C156.186 214.241 156.396 213.93 156.535 213.585C156.675 213.241 156.741 212.871 156.729 212.5C156.739 212.147 156.678 211.797 156.549 211.468C156.42 211.14 156.226 210.842 155.979 210.59C155.45 210.054 154.821 209.626 154.129 209.33C153.402 209.01 152.382 208.62 151.069 208.16C149.475 207.634 147.919 207.003 146.409 206.27C145.169 205.631 144.104 204.697 143.309 203.55C142.386 202.162 141.931 200.515 142.009 198.85C141.973 197.2 142.448 195.579 143.369 194.21C144.315 192.872 145.623 191.831 147.139 191.21C148.887 190.499 150.763 190.159 152.649 190.21C155.513 190.052 158.342 190.897 160.649 192.6C161.631 193.399 162.436 194.394 163.011 195.522C163.586 196.65 163.919 197.886 163.989 199.15H156.119C156.031 198.265 155.651 197.435 155.039 196.79C154.726 196.49 154.356 196.258 153.95 196.106C153.544 195.955 153.112 195.888 152.679 195.91C151.929 195.876 151.193 196.118 150.609 196.59C150.34 196.845 150.13 197.157 149.995 197.503C149.86 197.848 149.804 198.22 149.829 198.59C149.814 199.262 150.065 199.913 150.529 200.4C151.027 200.919 151.626 201.332 152.289 201.61C152.999 201.92 154.019 202.32 155.349 202.8C156.972 203.329 158.553 203.977 160.079 204.74C161.326 205.412 162.4 206.364 163.219 207.52C164.152 208.93 164.614 210.6 164.539 212.29C164.526 213.803 164.097 215.284 163.299 216.57Z" fill="white"/>
<path d="M129.26 215.08H139V220.65H122V190.58H129.28L129.26 215.08Z" fill="white"/>
<path d="M119.32 150.84H46C39.65 150.84 34.48 144.52 34.48 136.74V83.55C34.48 75.78 39.65 69.46 46 69.46H119.35C125.69 69.46 130.86 75.78 130.86 83.55V136.74C130.83 144.52 125.66 150.84 119.32 150.84ZM46 76.6599C42.89 76.6599 40.3701 79.75 40.3701 83.55V136.74C40.3701 140.54 42.89 143.63 46 143.63H119.35C122.45 143.63 124.97 140.54 124.97 136.74V83.55C124.97 79.75 122.45 76.6599 119.35 76.6599H46Z" fill="#00C650"/>
<path d="M127.89 118.81H37.3999V126.02H127.89V118.81Z" fill="#00C650"/>
<path d="M127.89 94.09H37.3999V101.3H127.89V94.09Z" fill="#00C650"/>
<path d="M104.71 73.0601H97.5V147.23H104.71V73.0601Z" fill="#00C650"/>
<path d="M67.78 73.0601H60.5701V147.23H67.78V73.0601Z" fill="#00C650"/>
</g>
</svg>
