<svg width="200" height="241" viewBox="0 0 200 241" fill="none" xmlns="http://www.w3.org/2000/svg">
<defs>
<clipPath id="clip0_105_2">
<rect width="200" height="241" fill="white"/>
</clipPath>
</defs>
<g clip-path="url(#clip0_105_2)">
<g opacity="0.3">
<path opacity="0.3" d="M139.67 49.25C134.203 49.2447 128.961 47.0704 125.095 43.2046C121.23 39.3387 119.055 34.097 119.05 28.6299V0H26.9102C19.7732 0 12.9284 2.83523 7.88184 7.88184C2.83523 12.9284 0 19.7729 0 26.9099V189.13C0 196.267 2.83523 203.112 7.88184 208.158C12.9284 213.205 19.7732 216.04 26.9102 216.04H137.51C144.647 216.04 151.492 213.205 156.538 208.158C161.585 203.112 164.42 196.267 164.42 189.13V49.25H139.67Z" fill="#00C650"/>
</g>
<path d="M164.42 49.25H139.67C134.203 49.2447 128.961 47.0704 125.095 43.2046C121.23 39.3387 119.055 34.097 119.05 28.6299V0L164.42 49.25Z" fill="#00C650"/>
<path d="M183.94 170.61H58.9001C50.0305 170.61 42.8401 177.8 42.8401 186.67V223.95C42.8401 232.82 50.0305 240.01 58.9001 240.01H183.94C192.81 240.01 200 232.82 200 223.95V186.67C200 177.8 192.81 170.61 183.94 170.61Z" fill="#00C650"/>
<path d="M174.41 221.07L168.07 211.71L162.63 221.07H154.29L163.91 205.59L154 191H162.63L168.8 200.06L174.11 191H182.41L172.92 206.14L183.04 221.07H174.41Z" fill="white"/>
<path d="M74.4302 213.38V220.65H66.9001V213.38H74.4302Z" fill="white"/>
<path d="M96.46 220.65L90.1301 211.29L84.6802 220.65H76.3501L85.96 205.17L76.05 190.58H84.6802L90.8501 199.64L96.1702 190.58H104.46L94.98 205.72L105.1 220.65H96.46Z" fill="white"/>
<path d="M150.299 217.379C149.436 218.76 148.198 219.866 146.729 220.569C144.941 221.406 142.982 221.814 141.009 221.759C138.032 221.884 135.098 221.015 132.669 219.289C131.595 218.482 130.716 217.444 130.098 216.252C129.48 215.059 129.138 213.742 129.099 212.399H136.839C136.894 213.412 137.326 214.368 138.049 215.079C138.769 215.75 139.725 216.11 140.709 216.079C141.11 216.102 141.512 216.047 141.891 215.914C142.27 215.782 142.62 215.576 142.919 215.309C143.186 215.05 143.396 214.739 143.535 214.394C143.675 214.05 143.741 213.68 143.729 213.309C143.739 212.956 143.678 212.606 143.549 212.277C143.42 211.949 143.226 211.651 142.979 211.399C142.45 210.863 141.822 210.435 141.129 210.139C140.402 209.819 139.382 209.429 138.069 208.969C136.475 208.443 134.919 207.812 133.409 207.079C132.169 206.44 131.104 205.506 130.309 204.359C129.387 202.971 128.931 201.324 129.009 199.659C128.973 198.009 129.448 196.388 130.369 195.019C131.315 193.681 132.623 192.64 134.139 192.019C135.887 191.308 137.763 190.968 139.649 191.019C142.513 190.861 145.342 191.706 147.649 193.409C148.631 194.208 149.436 195.203 150.011 196.331C150.586 197.459 150.919 198.695 150.989 199.959H143.119C143.031 199.074 142.651 198.244 142.039 197.599C141.726 197.299 141.356 197.067 140.95 196.915C140.544 196.764 140.112 196.697 139.679 196.719C138.929 196.685 138.193 196.927 137.609 197.399C137.34 197.654 137.13 197.966 136.995 198.312C136.861 198.657 136.804 199.029 136.829 199.399C136.814 200.071 137.065 200.722 137.529 201.209C138.027 201.728 138.626 202.141 139.289 202.419C139.999 202.729 141.019 203.129 142.349 203.609C143.972 204.138 145.553 204.786 147.079 205.549C148.326 206.221 149.4 207.173 150.219 208.329C151.152 209.739 151.614 211.409 151.539 213.099C151.526 214.612 151.097 216.093 150.299 217.379Z" fill="white"/>
<path d="M116.26 215.08H126V220.65H109V190.58H116.28L116.26 215.08Z" fill="white"/>
<path d="M118.89 150.84H45.5701C39.2201 150.84 34.05 144.52 34.05 136.74V83.55C34.05 75.78 39.2201 69.46 45.5701 69.46H118.92C125.26 69.46 130.43 75.78 130.43 83.55V136.74C130.4 144.52 125.23 150.84 118.89 150.84ZM45.5701 76.6599C42.4601 76.6599 39.9403 79.75 39.9403 83.55V136.74C39.9403 140.54 42.4601 143.63 45.5701 143.63H118.92C122.02 143.63 124.54 140.54 124.54 136.74V83.55C124.54 79.75 122.02 76.6599 118.92 76.6599H45.5701Z" fill="#00C650"/>
<path d="M127.46 118.81H36.97V126.02H127.46V118.81Z" fill="#00C650"/>
<path d="M127.46 94.09H36.97V101.3H127.46V94.09Z" fill="#00C650"/>
<path d="M104.28 73.0601H97.0701V147.23H104.28V73.0601Z" fill="#00C650"/>
<path d="M67.3501 73.0601H60.1401V147.23H67.3501V73.0601Z" fill="#00C650"/>
</g>
</svg>
