<?xml version="1.0" encoding="UTF-8" standalone="no"?> <!-- Created with Vectornator for iOS (http://vectornator.io/) --><!DOCTYPE svg PUBLIC "-//W3C//DTD SVG 1.1//EN" "http://www.w3.org/Graphics/SVG/1.1/DTD/svg11.dtd">
<svg style="fill-rule:evenodd;clip-rule:evenodd;stroke-linecap:round;stroke-linejoin:round;" xmlns:vectornator="http://vectornator.io" xmlns:xlink="http://www.w3.org/1999/xlink" xmlns="http://www.w3.org/2000/svg" xml:space="preserve" version="1.1" viewBox="0 0 750 500">
<metadata>
<vectornator:setting key="DynamicGuides" value="1"/>
<vectornator:setting key="CMYKEnabledKey" value="0"/>
<vectornator:setting key="Units" value="Points"/>
<vectornator:setting key="RulersVisible" value="1"/>
<vectornator:setting key="SnapToGuides" value="1"/>
<vectornator:setting key="GridSpacing" value="36"/>
</metadata>
<defs/>
<g id="BACKGROUND" vectornator:layerName="BACKGROUND">
<path d="M0+500.859L750+500.859L750+0.858981L0+0.858981L0+500.859Z" opacity="1" fill="#e3f6ff"/>
<path stroke="#b3e6fd" stroke-width="1" d="M137.373+197.97C139.08+155.018+165.921+111.445+207.228+99.5497C243.165+89.2007+281.157+103.496+315.435+118.45C349.711+133.404+386.288+149.637+423.111+143.108C456.371+137.209+483.288+113.851+511.154+94.7587C539.019+75.6677+573.879+59.7477+605.735+70.9797C623.748+77.3307+638.03+91.7407+647.865+108.114C671.415+147.321+670.607+199.874+645.864+238.339C621.12+276.804+573.631+299.327+528.188+294.153C510.126+292.095+492.045+286.047+474.145+289.221C448.718+293.731+430.511+315.267+410.274+331.31C376.463+358.114+332.077+371.189+289.133+366.993C224.611+360.691+170.969+318.629+148.118+258.779C140.727+239.421+136.548+218.742+137.373+197.97" fill="#72d3ff" stroke-linecap="butt" opacity="1" stroke-linejoin="miter"/>
<path d="M497.822+89.0454C500.491+85.9254+503.037+82.5174+503.999+78.5254C504.962+74.5354+503.98+69.8244+500.669+67.3974C497.543+65.1054+493.24+65.3494+489.467+66.2364C476.179+69.3604+454.238+86.1764+459.741+102.443C466.635+122.825+491.381+96.5764+497.822+89.0454" opacity="1" fill="#72d3ff"/>
<path d="M693.207+429C677.086+422.817+662.717+412.101+652.267+398.351C646.837+391.205+640.703+382.332+631.74+382.772C621.258+383.287+615.865+396.22+606.06+399.958C591.19+405.627+575.912+387.937+560.297+390.999C543.675+394.258+537.744+418.478+521.078+421.503C514.873+422.629+508.514+420.417+502.226+420.899C497.323+421.274+492.04+424.683+490.889+429L693.207+429Z" opacity="1" fill="#72d3ff"/>
<path d="M375.874+429C359.752+422.817+345.384+412.101+334.934+398.351C329.504+391.205+323.371+382.332+314.407+382.772C303.925+383.287+298.533+396.22+288.727+399.958C273.857+405.627+258.579+387.937+242.964+390.999C226.342+394.258+220.411+418.478+203.745+421.503C197.541+422.629+191.181+420.417+184.893+420.899C179.99+421.274+174.706+424.683+173.556+429L375.874+429Z" opacity="1" fill="#72d3ff"/>
<path stroke="#88d3f4" stroke-width="1" d="M130.468+350.408C129.864+350.327+136.657+349.522+139.961+349.14C139.991+347.965+139.943+346.788+139.813+345.621L127.166+344.849L138.744+340.64C138.185+338.938+137.439+337.3+136.498+335.766C134.417+332.374+131.45+329.359+130.613+325.468C129.656+321.025+131.709+316.522+133.976+312.584C136.242+308.645+138.854+304.647+139.148+300.113C139.323+297.404+138.631+294.771+137.513+292.281C134.715+292.234+131.301+292.223+129.474+292.388C128.667+292.72+128.151+292.876+128.173+292.712C128.193+292.564+128.686+292.46+129.474+292.388C131.012+291.755+133.645+290.45+135.937+289.28C135.483+288.524+135.011+287.78+134.515+287.063C131.836+283.195+128.653+279.624+126.671+275.356C124.678+271.064+123.978+266.22+121.636+262.108C119.294+257.997+114.331+254.672+109.947+256.452C105.823+258.128+104.428+263.29+104.444+267.741C104.446+268.43+104.47+269.126+104.499+269.822L110.605+272.862L104.623+272.733C104.718+275.569+104.634+278.374+103.507+280.941C101.438+285.653+96.3228+288.419+94.0288+293.025C91.1708+298.762+93.3968+305.679+96.2598+311.414C97.1748+313.245+98.1538+315.087+99.0668+316.951L109.049+318.998L100.666+320.508C101.81+323.364+102.591+326.298+102.488+329.369C102.201+337.921+95.2138+345.012+94.3268+353.522C94.3028+353.751+94.3048+353.964+94.2878+354.188L106.059+353.628L94.4058+358.513C96.9448+376.539+125.409+376.359+135.257+363.155C137.714+359.861+139.211+355.928+139.748+351.859C136.636+351.367+131.038+350.483+130.468+350.408Z" fill="none" stroke-linecap="butt" opacity="1" stroke-linejoin="miter"/>
<path d="M118.701+395.514C118.688+395.514+118.675+395.514+118.661+395.513C118.11+395.492+117.68+395.027+117.701+394.475C119.182+356.467+113.015+262.277+112.952+261.329C112.916+260.779+113.334+260.302+113.885+260.266C114.435+260.236+114.912+260.647+114.949+261.199C115.011+262.146+121.184+356.442+119.7+394.553C119.679+395.091+119.236+395.514+118.701+395.514" opacity="1" fill="#3697c2"/>
<path d="M106.431+331.501C108.473+328.161+110.575+324.856+112.541+321.476C110.534+319.655+108.079+318.159+105.721+316.929C102.077+315.027+97.6852+314.043+94.9862+310.888C90.0912+305.165+91.4932+297.212+87.4742+290.972C85.6982+288.213+82.5362+286.876+79.5472+285.748C78.3832+287.8+77.3132+289.846+76.1192+291.857C76.4692+289.628+76.7462+287.39+77.0442+285.152C75.9742+284.962+74.8422+284.773+73.7652+284.67C68.5452+284.165+63.0682+284.534+57.9962+283.318C53.7672+282.306+50.2532+279.717+46.1892+278.54C42.1252+277.362+37.5472+277.648+35.6172+281.794C34.0062+285.251+35.9832+289.002+38.2852+291.489C40.5892+293.977+43.8202+295.107+46.2282+297.326C48.6372+299.546+49.9102+302.058+51.0312+305.073C54.2062+304.378+57.3742+303.617+60.5552+302.924C57.7192+304.777+54.8732+306.539+51.9792+308.345C53.4732+312.941+54.2922+317.33+58.1592+320.63C62.3302+324.189+68.0332+324.109+72.7062+327.145C78.2522+330.745+80.7222+336.499+82.4182+342.813C82.5562+343.326+82.6592+343.867+82.7732+344.372C84.6832+343.966+86.5922+343.534+88.5112+343.167C86.7572+344.363+85.0192+345.569+83.2552+346.759C84.3082+351.859+85.2392+356.778+87.6702+361.421C88.8082+363.594+90.4782+365.237+92.1392+366.985C94.7042+365.603+97.2762+364.285+99.8572+362.949C98.2112+365.046+96.5912+367.124+94.9302+369.232C96.2912+369.962+97.2072+370.887+98.7942+371.42C102.908+372.801+108.225+375.523+112.7+373.757C123.131+369.636+124.906+355.252+124.336+345.537C123.849+337.256+120.471+331.785+116.159+325.246C112.846+327.326+109.637+329.345+106.431+331.501" opacity="1" fill="#b3e6fd"/>
<path d="M115.949+397.514C115.418+397.514+114.975+397.095+114.951+396.559C114.936+396.223+113.196+362.593+91.5852+325.265C70.0972+288.15+37.8572+282.305+37.5332+282.25C36.9902+282.158+36.6222+281.642+36.7142+281.098C36.8062+280.554+37.3162+280.192+37.8662+280.278C38.1982+280.333+71.3342+286.295+93.3152+324.263C115.185+362.038+116.934+396.129+116.949+396.47C116.973+397.021+116.546+397.489+115.994+397.513C115.979+397.514+115.964+397.514+115.949+397.514" opacity="1" fill="#3697c2"/>
<path d="M90.7007+387.348C90.7007+387.348+89.8057+429.512+116.868+429.348C144.368+429.181+141.534+387.348+141.534+387.348L90.7007+387.348Z" opacity="1" fill="#fdb32c"/>
<path d="M180.811+341.597L181.749+419.315L186.845+424.847L197.424+418.916C199.854+400.08+204.317+369.491+207.854+341.597L180.811+341.597Z" opacity="1" fill="#fa9778"/>
<path d="M178.335+416.229C178.124+416.023+177.779+416.131+177.712+416.418C177.42+417.667+176.751+420.474+176.006+423.163C175.221+425.997+177.402+428.204+178.365+429.014C178.631+429.238+178.958+429.349+179.306+429.349L219.694+429.319C219.694+429.319+221.507+426.542+208.464+423.407C195.422+420.272+200.379+416.476+196.34+417.019C192.301+417.562+187.231+423.062+183.311+420.262C180.611+418.333+179.047+416.92+178.335+416.229" opacity="1" fill="#fdb32c"/>
<path d="M156.748+341.597C159.687+370.443+163.236+402.199+165.277+420.91L174.511+425.764L184.539+419.448L184.778+341.597L156.748+341.597Z" opacity="1" fill="#fa9778"/>
<path d="M184.595+416.556C184.409+411.555+184.334+406.554+184.274+401.554C184.213+396.554+184.241+391.554+184.22+386.553C184.281+381.554+184.297+376.554+184.398+371.554L184.569+364.055C184.662+361.555+184.721+359.055+184.845+356.556C184.948+359.056+184.986+361.556+185.059+364.057L185.167+371.557C185.226+376.558+185.201+381.558+185.219+386.558C185.157+391.558+185.143+396.558+185.04+401.557C184.939+406.557+184.822+411.557+184.595+416.556" opacity="1" fill="#121b46"/>
<path d="M165.168+416.229C164.956+416.023+164.612+416.131+164.545+416.418C164.253+417.667+163.584+420.474+162.839+423.163C162.054+425.997+164.235+428.204+165.198+429.014C165.464+429.238+165.791+429.349+166.139+429.349L206.527+429.319C206.527+429.319+208.34+426.542+195.297+423.407C182.255+420.272+187.212+416.476+183.173+417.019C179.134+417.562+174.064+423.062+170.144+420.262C167.443+418.333+165.879+416.92+165.168+416.229" opacity="1" fill="#fdb32c"/>
<path d="M160.345+246.18C160.345+246.18+150.095+260.68+149.845+279.93C149.595+299.18+157.095+352.43+157.095+352.43L159.099+352.988C174.989+357.413+191.811+357.22+207.595+352.43C207.595+352.43+222.345+272.68+203.595+246.68L160.345+246.18Z" opacity="1" fill="#121b46"/>
<path d="M156.47+265.931C155.941+269.478+155.575+273.044+155.357+276.618C155.112+280.188+155.022+283.767+155.105+287.339C155.197+290.914+155.433+294.462+155.88+298.029L157.058+308.72L159.21+330.122L160.205+340.832C160.5+344.407+160.83+347.978+161.095+351.556C160.604+348.002+160.178+344.442+159.718+340.885L158.445+330.202L156.064+308.816L154.975+298.114C154.574+294.559+154.31+290.943+154.339+287.347C154.36+280.152+155.031+272.962+156.47+265.931" opacity="1" fill="#ffffff"/>
<path d="M243.596+173.048C243.002+173.274+241.89+174.068+240.059+176.635C240.059+176.635+242.491+170.4+242.005+169.294C241.518+168.188+237.304+175.674+237.304+175.674C237.304+175.674+239.29+168.374+238.485+167.618C237.68+166.862+234.402+174.743+234.402+174.743C234.402+174.743+236.015+167.104+235.377+167.069C233.787+166.985+231.231+177.651+230.139+177.264C229.173+176.921+228.74+174.248+228.755+172.847C228.759+172.552+228.525+172.333+228.229+172.372C227.648+172.449+226.803+172.817+226.689+174.289C226.543+176.192+226.315+179.938+227.7+184.283C227.698+184.287+227.696+184.29+227.695+184.293C227.243+185.169+226.676+186.27+226.021+187.537C227.472+188.153+228.921+188.762+230.367+189.333C232.159+190.04+234.021+190.846+235.928+191.6C236.195+189.281+236.401+186.951+236.526+184.612L236.526+184.61C239.166+181.515+243.21+176.439+244.048+173.452C244.129+173.164+243.878+172.941+243.596+173.048" opacity="1" fill="#f28766"/>
<path d="M203.47+184.555C203.47+184.555+209.095+186.68+210.595+190.305C212.095+193.93+215.345+209.93+215.345+209.93L226.72+185.18L237.095+187.555C237.095+187.555+235.22+216.18+224.595+235.555C213.97+254.93+200.595+235.93+198.595+229.055C196.595+222.18+192.72+194.555+194.22+191.805C195.72+189.055+203.47+184.555+203.47+184.555" opacity="1" fill="#fdb32c"/>
<path d="M226.845+188.68C228.387+188.696+229.848+189.006+231.29+189.386C232.723+189.796+234.137+190.277+235.47+191.055C233.927+191.041+232.466+190.731+231.025+190.349C229.592+189.937+228.178+189.456+226.845+188.68" opacity="1" fill="#121b46"/>
<path d="M198.956+182.196C197.456+181.323+196.209+180.425+195.161+179.158C194.915+178.27+194.336+176.073+193.902+173.594C193.519+171.387+193.248+168.964+193.439+167.059L193.439+167.051C193.527+166.111+193.727+165.298+194.085+164.7L172.725+152.689C172.741+152.76+172.749+152.824+172.765+152.896C173.103+154.877+175.672+170.406+173.045+178.667C172.152+179.079+171.156+179.432+170.014+179.672C175.547+187.228+178.99+196.01+184.607+203.556C187.67+207.67+191.648+212.086+197.254+211.208C197.805+211.121+198.311+210.996+198.794+210.85C199.461+206.242+199.396+201.25+199.433+197.347C199.477+192.7+198.431+187.158+198.956+182.196" opacity="1" fill="#fa9778"/>
<path d="M193.902+173.594C182.29+175.06+176.407+161.192+176.193+160.674C178.336+164.077+181.444+165.799+184.481+166.62C188.219+167.64+191.846+167.298+193.368+167.074C193.392+167.066+193.416+167.066+193.44+167.058C193.249+168.963+193.52+171.386+193.902+173.594" opacity="1" fill="#fa7c55"/>
<path d="M172.761+178.264L189.761+207.097L195.344+179.931C195.344+179.931+206.594+185.097+209.261+189.931C211.928+194.764+213.761+206.597+212.428+213.431C211.094+220.264+202.094+241.431+204.928+247.597C207.761+253.764+210.761+260.597+211.261+264.597L201.094+264.597L197.094+258.264L194.094+264.764L150.594+264.764C150.594+264.764+161.928+240.597+162.428+237.431C162.928+234.264+155.261+206.097+154.761+199.764C154.261+193.431+158.261+182.431+160.928+181.097C163.594+179.764+172.761+178.264+172.761+178.264" opacity="1" fill="#fdb32c"/>
<path d="M172.761+178.264L171.344+193.993L178.011+196.514L173.344+209.681L189.469+230.181L200.761+209.014L197.928+197.097L206.678+196.014L195.281+179.58L189.761+207.097L172.761+178.264Z" opacity="1" fill="#fee37a"/>
<path d="M172.761+178.264L188.532+192.056L195.344+179.243L205.928+185.597L199.344+185.431L189.761+207.097L173.657+184.868L167.094+187.431L172.761+178.264Z" opacity="1" fill="#ffffff"/>
<path d="M174.095+185.055C174.638+184.417+175.293+184.064+175.974+183.778C176.667+183.52+177.387+183.332+178.22+183.43C177.678+184.07+177.023+184.423+176.341+184.707C175.647+184.963+174.927+185.151+174.095+185.055" opacity="1" fill="#121b46"/>
<path d="M199.345+185.43C198.269+185.323+197.333+184.943+196.429+184.5C195.54+184.029+194.685+183.492+193.97+182.68C195.046+182.785+195.982+183.165+196.885+183.61C197.773+184.084+198.629+184.621+199.345+185.43" opacity="1" fill="#121b46"/>
<path d="M210.855+249.828L175.639+243.407L185.097+191.531L220.313+197.952L210.855+249.828Z" opacity="1" fill="#d93c3b"/>
<path d="M211.542+250.67L176.326+244.249L185.784+192.373L219.989+198.225L221.224+199.576L211.542+250.67Z" opacity="1" fill="#ffffff"/>
<path d="M212.234+251.479L177.018+245.058L186.476+193.181L221.692+199.603L212.234+251.479Z" opacity="1" fill="#ff5c5b"/>
<path d="M221.692+199.602L220.314+197.951L219.989+198.225L221.157+199.511L221.692+199.602Z" opacity="1" fill="#d93c3b"/>
<path d="M159.095+246.055C159.095+246.055+172.887+242.263+176.262+240.138C176.262+240.138+167.928+251.18+156.678+251.347L159.095+246.055Z" opacity="1" fill="#121b46"/>
<path d="M219.092+213.599C219.499+212.462+211.291+214.999+211.291+214.999C211.291+214.999+217.753+211.065+217.688+209.962C217.624+208.86+209.824+212.328+209.824+212.328C209.824+212.328+216.249+207.891+215.809+207.427C214.713+206.272+205.523+212.26+204.996+211.228C204.53+210.314+206.053+208.075+207.028+207.068C207.233+206.857+207.214+206.537+206.972+206.362C206.498+206.018+205.631+205.704+204.536+206.695C203.117+207.98+200.369+210.57+198.385+214.701C198.377+214.703+198.38+214.704+198.364+214.707C197.924+214.865+194.749+215.98+189.781+217.71C189.778+218.209+189.781+218.71+189.805+219.211C189.981+222.865+190.302+226.547+190.719+230.18C190.758+230.514+190.808+230.847+190.851+231.18C194.989+228.105+198.977+224.787+202.708+221.171L202.692+221.147L202.688+221.14C206.226+220.822+214.585+219.896+217.716+218.023C217.972+217.87+217.944+217.535+217.666+217.419C217.079+217.175+215.726+216.987+212.631+217.591C212.631+217.591+218.684+214.736+219.092+213.599" opacity="1" fill="#fa9778"/>
<path d="M196.595+214.805L168.345+224.43C168.345+224.43+170.666+215.578+171.318+205.88C169.454+205.203+167.745+204.144+166.614+202.621C166.057+201.871+165.715+201.129+165.527+200.405C165.351+200.166+165.183+199.916+165.032+199.641C164.946+199.484+164.873+199.323+164.801+199.162C164.527+199.297+164.238+199.415+163.924+199.501C161.458+200.179+158.297+198.66+157.773+196.009C156.597+190.053+158.785+184.85+163.399+181.862C162.591+181.548+161.714+181.323+160.751+181.211C160.751+181.211+153.47+186.68+151.22+194.18C148.97+201.68+143.47+236.18+150.72+244.18C157.97+252.18+190.595+234.18+200.47+224.18L196.595+214.805Z" opacity="1" fill="#fdb32c"/>
<path d="M159.97+228.555C162.797+226.953+165.671+225.45+168.553+223.961L168.566+223.954L168.599+223.942C170.89+223.108+173.193+222.309+175.503+221.53C177.809+220.74+180.127+219.986+182.445+219.231C184.765+218.483+187.095+217.764+189.432+217.068C191.763+216.352+194.111+215.687+196.47+215.055C194.203+215.964+191.927+216.842+189.632+217.667C187.345+218.513+185.05+219.336+182.744+220.129C180.437+220.916+178.131+221.704+175.812+222.455C173.496+223.218+171.175+223.961+168.841+224.668L168.887+224.649C165.935+225.994+162.976+227.324+159.97+228.555" opacity="1" fill="#121b46"/>
<path d="M161.095+222.805C161.742+222.867+162.387+222.947+163.03+223.032C163.673+223.119+164.321+223.183+164.959+223.29L168.802+223.887L168.3+224.229L169.74+215.028L170.466+210.43C170.661+208.893+170.928+207.365+170.97+205.805C171.199+207.354+171.16+208.936+171.07+210.492C170.975+212.052+170.845+213.608+170.653+215.156C170.263+218.25+169.772+221.326+169.139+224.381L169.048+224.822L168.637+224.723L164.855+223.82C164.223+223.677+163.6+223.491+162.972+223.329C162.345+223.163+161.718+222.993+161.095+222.805" opacity="1" fill="#121b46"/>
<path d="M192.595+217.555C193.637+218.8+194.404+220.178+195.107+221.587C195.781+223.01+196.389+224.465+196.72+226.055C195.676+224.811+194.908+223.433+194.208+222.023C193.535+220.599+192.928+219.144+192.595+217.555" opacity="1" fill="#121b46"/>
<path d="M164.845+185.305C166.08+185.862+167.158+186.763+168.048+187.801C168.951+188.837+169.655+190.036+170.212+191.293C170.713+192.571+171.098+193.897+171.249+195.254C171.362+195.926+171.342+196.612+171.377+197.285C171.341+197.964+171.303+198.638+171.22+199.305C171.076+198.639+171.017+197.978+170.888+197.326C170.738+196.679+170.656+196.026+170.481+195.393C170.183+194.117+169.777+192.881+169.291+191.681C168.783+190.491+168.164+189.352+167.433+188.277C166.688+187.215+165.864+186.185+164.845+185.305" opacity="1" fill="#121b46"/>
<path d="M204.828+147.574C204.589+141.278+203.816+134.806+201.656+129.235C198.867+122.061+185.716+119.272+176.55+127.242C172.29+130.944+171.396+137.657+171.651+143.785C171.429+143.677+171.229+143.592+171.099+143.56C169.233+143.095+167.359+144.501+166.8+146.255C166.355+147.652+166.656+149.231+167.454+150.462C168.117+151.484+169.194+152.438+170.344+152.876C170.634+152.986+171.925+153.2+172.835+153.121C173.707+157.153+175.765+160.877+178.941+163.514C182.942+166.846+188.075+168.177+193.176+167.117C197.145+166.296+203.019+163.753+204.477+159.633C204.852+158.557+204.892+157.401+204.9+156.262C204.9+155.998+204.908+155.735+204.908+155.472C204.94+152.922+204.932+150.26+204.828+147.574" opacity="1" fill="#fa9778"/>
<path d="M204.908+155.473C204.574+155.56+204.223+155.608+203.864+155.608C201.616+155.608+199.791+153.783+199.791+151.535C199.791+149.28+201.616+147.463+203.864+147.463C204.199+147.463+204.518+147.503+204.828+147.575C204.932+150.261+204.94+152.923+204.908+155.473" opacity="1" fill="#fa7c55"/>
<path d="M179.511+151.534C179.511+153.784+181.335+155.609+183.586+155.609C185.837+155.609+187.661+153.784+187.661+151.534C187.661+149.284+185.837+147.459+183.586+147.459C181.335+147.459+179.511+149.284+179.511+151.534" opacity="1" fill="#fa7c55"/>
<path d="M197.646+143.627C197.646+144.958+198.173+146.037+198.823+146.037C199.473+146.037+200+144.958+200+143.627C200+142.296+199.473+141.218+198.823+141.218C198.173+141.218+197.646+142.296+197.646+143.627" opacity="1" fill="#121b46"/>
<path d="M201.225+140.456C201.026+140.846+200.765+141.186+200.429+141.484C200.096+141.782+199.673+142.012+199.197+142.122L199.177+142.126C198.943+142.18+198.709+142.034+198.655+141.799C198.601+141.564+198.748+141.331+198.982+141.277C199.02+141.268+199.06+141.265+199.097+141.266C199.755+141.292+200.486+140.892+200.985+140.31L200.993+140.301C201.044+140.242+201.132+140.235+201.191+140.286C201.242+140.329+201.254+140.4+201.225+140.456" opacity="1" fill="#121b46"/>
<path d="M189.807+143.627C189.807+144.958+189.28+146.037+188.63+146.037C187.98+146.037+187.453+144.958+187.453+143.627C187.453+142.296+187.98+141.218+188.63+141.218C189.28+141.218+189.807+142.296+189.807+143.627" opacity="1" fill="#121b46"/>
<path d="M186.468+140.31C186.967+140.891+187.697+141.292+188.356+141.266C188.596+141.256+188.799+141.443+188.808+141.684C188.818+141.924+188.631+142.127+188.39+142.136C188.351+142.138+188.314+142.134+188.278+142.126L188.256+142.121C187.78+142.012+187.357+141.781+187.024+141.484C186.688+141.185+186.427+140.846+186.228+140.456C186.193+140.387+186.22+140.302+186.289+140.267C186.348+140.236+186.418+140.252+186.46+140.3L186.468+140.31Z" opacity="1" fill="#121b46"/>
<path d="M198.145+150.916C197.737+151.71+197.116+152.396+196.371+152.933C195.627+153.47+194.696+153.815+193.736+153.808C192.784+153.784+191.847+153.459+191.114+152.903C190.73+152.651+190.429+152.299+190.098+151.999C189.821+151.642+189.551+151.285+189.308+150.916C189.672+151.182+190.003+151.465+190.336+151.74C190.707+151.965+191.038+152.242+191.413+152.431C192.144+152.849+192.943+153.079+193.74+153.092C194.541+153.111+195.339+152.858+196.076+152.461C196.811+152.054+197.503+151.528+198.145+150.916" opacity="1" fill="#121b46"/>
<path d="M194.966+155.188C194.631+155.486+194.171+155.594+193.727+155.607C193.282+155.593+192.829+155.473+192.487+155.188C192.923+155.257+193.318+155.342+193.728+155.327C194.137+155.343+194.537+155.272+194.966+155.188" opacity="1" fill="#121b46"/>
<path d="M190.786+135.271C190.237+134.784+189.615+134.625+188.962+134.596C188.315+134.581+187.65+134.657+187.02+134.872C186.385+135.065+185.799+135.422+185.31+135.851C184.8+136.264+184.441+136.81+184.143+137.347C183.992+137.619+184.09+137.962+184.362+138.113C184.579+138.234+184.842+138.196+185.016+138.036L185.064+137.992C185.447+137.639+185.815+137.309+186.226+137.069C186.621+136.803+187.066+136.657+187.509+136.542C187.957+136.438+188.423+136.382+188.899+136.407C189.369+136.423+189.869+136.447+190.386+136.321L190.534+136.285C190.851+136.208+191.045+135.889+190.967+135.572C190.938+135.451+190.872+135.348+190.786+135.271" opacity="1" fill="#121b46"/>
<path d="M196.668+135.271C197.217+134.784+197.838+134.625+198.491+134.596C199.139+134.581+199.804+134.657+200.434+134.872C201.069+135.065+201.654+135.422+202.144+135.851C202.654+136.264+203.012+136.81+203.311+137.347C203.462+137.619+203.364+137.962+203.092+138.113C202.874+138.234+202.611+138.196+202.438+138.036L202.39+137.992C202.006+137.639+201.639+137.309+201.228+137.069C200.833+136.803+200.388+136.657+199.944+136.542C199.497+136.438+199.03+136.382+198.554+136.407C198.085+136.423+197.584+136.447+197.068+136.321L196.919+136.285C196.603+136.208+196.409+135.889+196.486+135.572C196.516+135.451+196.581+135.348+196.668+135.271" opacity="1" fill="#121b46"/>
<path d="M193.999+139.946C194.207+140.854+194.36+141.756+194.528+142.649C194.703+143.539+194.866+144.428+195.12+145.272C195.178+145.484+195.244+145.692+195.319+145.893C195.38+146.058+195.528+146.375+195.524+146.671C195.555+147.273+195.17+147.862+194.679+148.1C194.178+148.381+193.599+148.337+193.143+148.181C192.68+148.014+192.276+147.763+191.927+147.454C192.771+147.772+193.758+148.019+194.353+147.57C194.651+147.343+194.813+147.041+194.77+146.711C194.755+146.542+194.702+146.434+194.594+146.176C194.503+145.951+194.423+145.724+194.355+145.496C194.098+144.578+193.964+143.651+193.914+142.724C193.859+141.797+193.877+140.869+193.999+139.946" opacity="1" fill="#121b46"/>
<path d="M168.276+147.558C168.263+147.005+168.416+146.392+168.904+145.964C169.423+145.539+170.161+145.578+170.721+145.788C171.317+145.995+171.805+146.402+172.189+146.859C172.582+147.321+172.868+147.822+173.101+148.398C173.184+148.603+173.085+148.837+172.88+148.921C172.724+148.983+172.553+148.942+172.443+148.83L172.416+148.803C172.025+148.405+171.532+147.98+171.067+147.849C170.834+147.788+170.661+147.796+170.5+147.911C170.333+148.029+170.205+148.279+170.095+148.537C169.89+149.065+169.766+149.683+170.217+149.927C170.69+150.196+171.382+150.131+172+150.049C171.417+150.305+170.773+150.52+170.041+150.312C169.669+150.192+169.374+149.769+169.349+149.389C169.314+149.007+169.368+148.661+169.463+148.322C169.564+147.987+169.704+147.631+170.034+147.337C170.368+147.037+170.893+146.967+171.266+147.083C172.029+147.312+172.544+147.753+173.022+148.265L172.337+148.67C171.968+147.747+171.362+146.787+170.487+146.355C170.05+146.146+169.532+146.039+169.118+146.272C168.685+146.497+168.423+147.029+168.276+147.558" opacity="1" fill="#121b46"/>
<path d="M206.765+135.93C207.595+118.43+184.265+112.93+172.425+125.76C162.695+136.31+164.795+159.26+165.855+167.09C166.085+168.78+167.195+170.23+168.795+170.84C170.525+171.51+172.305+172.06+174.095+172.5C174.645+164.64+173.155+155.21+172.795+153.12C171.895+153.2+170.635+152.99+170.345+152.88C169.195+152.44+168.115+151.48+167.455+150.46C166.655+149.23+166.355+147.65+166.805+146.25C167.355+144.5+169.235+143.09+171.095+143.56C171.225+143.59+171.425+143.67+171.645+143.78C171.643+143.732+171.642+143.683+171.64+143.635C182.263+147.832+192.47+129.93+192.47+129.93C192.47+129.93+200.686+141.092+204.45+142.049C204.632+143.888+204.755+145.736+204.825+147.57C204.935+150.26+204.945+152.92+204.905+155.47L204.905+156.26C204.895+157.4+204.855+158.56+204.475+159.63C203.045+163.66+197.405+166.19+193.445+167.06C193.245+168.96+193.525+171.39+193.905+173.59C193.935+173.74+193.955+173.89+193.985+174.03C201.695+173.6+207.265+172.26+207.265+172.26C207.265+172.26+205.925+153.43+206.765+135.93" opacity="1" fill="#ffffff"/>
<path d="M270.569+403.797C270.563+413.87+270.595+420.172+270.595+420.172L286.782+421.797L289.242+403.797L270.569+403.797Z" opacity="1" fill="#f7bb8b"/>
<path d="M268.89+417.005C268.89+417.005+265.428+420.317+262.418+421.672C259.407+423.026+245.86+422.274+246.763+429.047L278.072+429.047L280.857+426.263L280.857+429.349L287.103+429.349C287.103+429.349+289.512+422.424+287.254+418.209C287.254+418.209+282.738+422.274+277.771+420.467C272.804+418.661+268.89+417.005+268.89+417.005" opacity="1" fill="#121b46"/>
<path d="M328.29+403.797L330.511+420.797L346.303+422.505C346.303+422.505+346.415+415.234+346.519+403.797L328.29+403.797Z" opacity="1" fill="#f7bb8b"/>
<path d="M348.487+417.005C348.487+417.005+351.949+420.317+354.96+421.672C357.97+423.026+371.517+422.274+370.614+429.047L339.305+429.047L336.521+426.263L336.521+429.349L330.274+429.349C330.274+429.349+327.865+422.424+330.123+418.209C330.123+418.209+334.639+422.274+339.606+420.467C344.573+418.661+348.487+417.005+348.487+417.005" opacity="1" fill="#121b46"/>
<path d="M347.511+415.463L328.511+415.463L309.178+271.13L289.511+415.797L269.511+415.797C269.511+415.797+270.511+302.463+272.844+278.13C275.178+253.797+284.844+230.13+284.844+230.13L331.928+230.13C331.928+230.13+345.178+254.13+345.844+281.13L346.511+308.13L347.511+415.463Z" opacity="1" fill="#121b46"/>
<path d="M313.845+231.671C313.97+235.858+314.064+240.046+314.127+244.234C314.175+248.421+314.263+252.608+314.278+256.796L314.278+256.862L314.257+256.928L309.695+271.324L308.706+274.444L308.721+271.171L308.766+261.296C308.788+258.004+308.778+254.713+308.838+251.421C308.918+244.838+309.014+238.254+309.22+231.671C309.426+238.254+309.522+244.838+309.602+251.421C309.662+254.713+309.652+258.004+309.674+261.296L309.719+271.171L308.745+271.018L313.433+256.664L313.412+256.796C313.427+252.608+313.515+248.421+313.563+244.234C313.626+240.046+313.72+235.858+313.845+231.671" opacity="1" fill="#ffffff"/>
<path d="M325.97+232.046C326.178+233.078+326.381+234.102+326.65+235.112C326.888+236.127+327.156+237.133+327.467+238.123C328.089+240.101+328.802+242.046+329.755+243.858C330.703+245.663+331.886+247.359+333.452+248.636C334.999+249.943+336.996+250.649+339.095+250.796C338.049+250.923+336.975+250.853+335.921+250.62C334.874+250.353+333.887+249.862+332.99+249.251C331.178+248.015+329.879+246.199+328.87+244.321C327.894+242.412+327.184+240.389+326.727+238.32C326.265+236.255+325.968+234.154+325.97+232.046" opacity="1" fill="#ffffff"/>
<path d="M290.845+232.546C290.87+234.605+290.665+236.668+290.262+238.697C289.858+240.725+289.271+242.732+288.393+244.635C287.513+246.524+286.329+248.35+284.647+249.68C283.817+250.349+282.85+250.859+281.824+251.129C280.797+251.385+279.739+251.451+278.72+251.296C280.781+251.206+282.713+250.442+284.144+249.084C285.589+247.748+286.658+246.032+287.487+244.215C288.344+242.404+288.956+240.47+289.505+238.52C290.027+236.559+290.485+234.57+290.845+232.546" opacity="1" fill="#ffffff"/>
<path d="M271.095+411.297C274.012+410.903+276.928+410.813+279.845+410.797C282.762+410.811+285.678+410.901+288.595+411.297C285.678+411.693+282.762+411.782+279.845+411.796C276.928+411.78+274.012+411.69+271.095+411.297" opacity="1" fill="#ffffff"/>
<path d="M328.845+411.297C331.762+410.903+334.678+410.813+337.595+410.797C340.512+410.811+343.428+410.901+346.345+411.297C343.428+411.693+340.512+411.782+337.595+411.796C334.678+411.78+331.762+411.69+328.845+411.297" opacity="1" fill="#ffffff"/>
<path d="M299.716+142.09L299.636+141.43C299.671+141.683+299.7+141.917+299.716+142.09M340.706+162.151C338.399+159.482+334.971+158.07+331.307+157.931C328.989+157.842+326.996+157.448+325.269+156.852C323.782+154.799+318.744+152.029+317.69+147.794C317.383+145.824+317.19+143.765+317.357+142.098L317.357+142.09C317.445+141.15+317.644+140.337+318.003+139.739L308.686+134.976L298.874+138.115C299.117+138.521+299.376+139.768+299.545+140.825C299.673+142.493+299.635+145.315+299.412+147.43L299.398+147.43C298.555+151.875+293.315+154.74+291.785+156.852C290.059+157.448+288.065+157.842+285.747+157.931C282.083+158.07+278.655+159.482+276.348+162.151C273.211+165.78+271.159+172.301+274.886+183.563C281.339+203.062+286.264+217.961+286.171+226.771L330.883+226.771C330.791+217.961+335.716+203.062+342.169+183.563C345.895+172.301+343.844+165.78+340.706+162.151" opacity="1" fill="#f7bb8b"/>
<path d="M284.827+224.945C284.557+226.033+284.54+227.626+284.578+228.835C284.61+229.807+285.38+230.589+286.351+230.644C294.666+231.118+331.19+233.056+331.928+230.546C332.762+227.713+332.095+224.88+332.095+224.88C332.095+224.88+334.012+212.463+337.178+202.546C340.345+192.63+346.012+175.963+344.428+168.796C342.845+161.63+336.928+157.963+333.012+157.546C329.095+157.13+323.928+155.046+323.928+155.046C323.928+155.046+312.928+161.13+309.012+161.63C305.095+162.13+293.345+155.046+293.345+155.046C293.345+155.046+289.512+156.713+286.262+157.296C283.012+157.88+273.095+159.38+272.095+171.13C271.212+181.505+282.154+214.749+284.726+222.387C285.006+223.216+285.037+224.096+284.827+224.945" opacity="1" fill="#ffffff"/>
<path d="M313.225+161.046L308.538+161.091L303.85+161.046L302.475+167.358L306.413+173.296L306.788+173.296L310.287+173.296L310.662+173.296L314.6+167.358L313.225+161.046Z" opacity="1" fill="#ff5c5b"/>
<path d="M320.881+151.109L309.381+159.484L308.568+159.426L308.568+159.422L308.537+159.424L308.506+159.422L308.506+159.426L307.693+159.484L296.194+151.109L288.506+156.359L299.006+164.922L307.006+161.984L308.506+164.684L308.506+164.797L308.537+164.74L308.568+164.797L308.568+164.684L310.068+161.984L318.068+164.922L328.568+156.359L320.881+151.109Z" opacity="1" fill="#edf9ff"/>
<path d="M306.845+170.796L301.595+217.296L308.72+223.671L315.845+217.046L310.662+173.296L306.845+170.796Z" opacity="1" fill="#ff5c5b"/>
<path d="M288.928+156.63L298.761+164.797L303.428+163.38L299.178+166.713L288.928+156.63Z" opacity="1" fill="#121b46"/>
<path d="M313.595+163.296L317.928+164.879L328.262+156.629L318.262+167.213L313.595+163.296Z" opacity="1" fill="#121b46"/>
<path d="M341.395+217.506C341.315+217.486+341.235+217.476+341.155+217.466C324.345+214.806+306.215+209.836+290.225+200.656L292.075+195.326L292.925+193.001C292.925+193.001+293.035+193.01+293.236+193.03C295.306+193.211+307.334+194.616+322.745+195.876C326.495+196.186+330.435+196.506+334.475+196.826C333.895+195.076+333.335+193.386+332.785+191.756C332.575+191.156+332.375+190.556+332.175+189.976C331.885+189.126+331.605+188.296+331.325+187.506C329.945+183.496+328.705+180.066+327.705+177.486C326.335+173.956+325.585+171.056+325.255+168.656C324.135+160.636+332.435+155.686+339.015+160.606C341.585+162.536+344.235+165.736+346.455+170.996C349.035+177.076+353.105+186.716+356.965+198.536C357.015+198.696+357.075+198.866+357.125+199.036C360.395+209.116+351.855+219.156+341.395+217.506" opacity="1" fill="#ffffff"/>
<path d="M327.428+174.963C328.184+176.716+328.87+178.492+329.523+180.279C330.196+182.06+330.818+183.858+331.414+185.665C332.019+187.468+332.592+189.282+333.137+191.105C333.694+192.924+334.181+194.766+334.681+196.603L334.403+196.46C335.342+196.237+336.273+195.992+337.22+195.796C336.334+196.185+335.432+196.522+334.537+196.883L334.343+196.962L334.259+196.74C333.585+194.959+332.899+193.183+332.282+191.384C331.654+189.589+331.053+187.785+330.484+185.97C329.907+184.158+329.355+182.338+328.854+180.501C328.334+178.67+327.845+176.829+327.428+174.963" opacity="1" fill="#121b46"/>
<path d="M307.761+208.796L324.178+202.046L311.261+210.213L307.761+208.796Z" opacity="1" fill="#121b46"/>
<path d="M335.345+198.421C334.846+198.306+334.621+198.054+334.46+197.77C334.328+197.471+334.261+197.14+334.47+196.671C334.97+196.785+335.196+197.037+335.354+197.322C335.485+197.622+335.552+197.953+335.345+198.421" opacity="1" fill="#121b46"/>
<path d="M315.261+211.546C318.405+211.913+321.488+212.577+324.551+213.312C327.607+214.076+330.645+214.915+333.594+216.046C330.433+215.677+327.36+215.016+324.304+214.28C321.256+213.516+318.228+212.679+315.261+211.546" opacity="1" fill="#121b46"/>
<path d="M292.909+193.049L292.075+195.326L283.504+196.086C280.075+196.386+276.615+195.606+273.715+193.746C273.084+193.346+272.664+192.996+272.635+192.796C272.425+191.716+280.834+193.156+280.834+193.156C280.834+193.156+273.514+190.436+273.825+189.876C274.604+188.486+284.985+192.026+285.244+190.896C285.465+189.896+283.445+188.106+282.244+187.366C281.994+187.216+281.934+186.896+282.124+186.666C282.504+186.216+283.264+185.696+284.575+186.386C286.374+187.346+292.909+193.049+292.909+193.049" opacity="1" fill="#f7bb8b"/>
<path d="M324.241+202.057C327.927+200.355+331.384+198.598+334.471+196.827L321.879+193.499L321.72+192.921L282.759+196.097C285.329+188.35+287.613+181.766+289.282+177.486C290.653+173.963+291.402+171.054+291.737+168.663C292.853+160.637+284.548+155.688+277.972+160.605C275.398+162.534+272.752+165.738+270.528+170.998C267.954+177.079+263.881+186.724+260.023+198.536C259.97+198.7+259.916+198.866+259.862+199.031C256.597+209.113+265.132+219.155+275.6+217.501C275.676+217.489+275.752+217.476+275.828+217.465C289.345+215.331+308.681+209.221+324.056+202.141L324.261+202.13L324.241+202.057Z" opacity="1" fill="#ffffff"/>
<path d="M332.782+191.758C332.001+191.854+331.491+191.821+331.435+191.583C331.332+191.144+331.666+190.554+332.177+189.972C331.889+189.128+331.603+188.299+331.324+187.502C329.535+188.489+326.774+190.247+324.258+193.217L321.803+193.463L324.261+202.13L334.472+196.827C333.89+195.073+333.332+193.384+332.782+191.758" opacity="1" fill="#f7bb8b"/>
<path d="M321.845+192.963C318.603+193.413+315.354+193.778+312.103+194.115C308.854+194.476+305.599+194.759+302.343+195.037C299.087+195.314+295.829+195.559+292.568+195.773C289.305+195.965+286.044+196.174+282.775+196.292L282.918+196.174C282.568+197.245+282.218+198.316+281.845+199.38C282.083+198.277+282.344+197.182+282.605+196.086L282.63+195.983L282.748+195.968C285.993+195.558+289.246+195.239+292.497+194.903C295.75+194.59+299.006+194.307+302.263+194.056C305.522+193.806+308.78+193.561+312.045+193.395C315.308+193.204+318.573+193.041+321.845+192.963" opacity="1" fill="#121b46"/>
<path d="M278.595+197.421C279.173+196.829+279.841+196.529+280.53+196.298C281.229+196.097+281.95+195.966+282.762+196.129C282.184+196.723+281.516+197.023+280.826+197.253C280.127+197.452+279.406+197.583+278.595+197.421" opacity="1" fill="#121b46"/>
<path d="M282.511+216.13C282.511+216.13+294.511+213.963+302.511+210.463L284.011+219.963L282.511+216.13Z" opacity="1" fill="#121b46"/>
<path d="M285.761+186.63C286.237+184.07+286.999+181.609+287.831+179.174C288.691+176.748+289.624+174.347+290.844+172.047C290.371+174.608+289.609+177.067+288.775+179.503C287.912+181.928+286.98+184.329+285.761+186.63" opacity="1" fill="#121b46"/>
<path d="M329.57+121.295C329.013+119.545+327.146+118.142+325.284+118.598C326.11+94.2659+305.825+97.5439+305.825+97.5439C293.093+98.6479+291.641+112.181+291.736+119.072C291.325+118.833+290.938+118.653+290.723+118.6C288.857+118.134+286.983+119.541+286.424+121.295C285.979+122.692+286.28+124.271+287.078+125.502C287.741+126.524+288.818+127.478+289.968+127.916C290.23+128.016+291.312+128.2+292.19+128.176C294.159+144.079+308.568+142.514+308.568+142.514C321.061+143.132+324.304+134.407+325.033+128.107C325.497+128.05+325.883+127.97+326.026+127.916C327.176+127.478+328.253+126.524+328.916+125.502C329.714+124.271+330.015+122.692+329.57+121.295" opacity="1" fill="#f7bb8b"/>
<path d="M315.186+131.109C315.186+131.109+314.103+124.692+308.269+124.692C302.436+124.692+300.853+130.609+300.853+130.609C298.172+129.836+296.099+124.896+294.906+121.24C294.147+118.913+294.915+116.332+296.896+114.893L296.943+114.859C298.505+113.734+297.193+113.359+298.255+110.172C298.314+109.994+298.384+109.824+298.463+109.659C299.724+107.029+303.286+106.726+305.373+108.764C305.588+108.975+305.844+109.167+306.12+109.347C306.795+109.869+307.605+110.193+308.56+110.17C308.562+110.171+308.565+110.172+308.568+110.172C308.611+110.175+308.649+110.169+308.691+110.171C308.733+110.169+308.772+110.175+308.814+110.172C308.817+110.172+308.82+110.171+308.823+110.17C309.777+110.193+310.587+109.869+311.263+109.347C311.539+109.167+311.794+108.975+312.01+108.764C314.097+106.726+317.658+107.029+318.919+109.659C318.999+109.824+319.068+109.994+319.127+110.172C320.189+113.359+318.877+113.734+320.439+114.859C320.615+114.985+320.79+115.119+320.963+115.257C322.837+116.753+323.581+119.323+322.718+121.56C320.453+127.433+315.186+131.109+315.186+131.109M327.877+112.922C328.002+110.172+324.564+99.7969+315.877+97.5459C313.084+96.8229+310.678+96.6129+308.691+96.6569C306.704+96.6129+304.298+96.8229+301.505+97.5459C292.818+99.7969+289.38+110.172+289.505+112.922C289.545+113.796+289.812+114.694+290.157+115.514C291.071+117.681+291.635+119.979+291.668+122.33C291.696+124.327+291.769+126.525+291.936+128.296C292.353+132.713+297.269+145.38+307.519+145.38C317.769+145.38+322.519+137.796+324.519+132.296C325.499+129.602+325.739+126.029+325.729+123.086C325.72+120.484+326.216+117.91+327.226+115.512C327.571+114.693+327.837+113.796+327.877+112.922" opacity="1" fill="#121b46"/>
<path d="M312.488+119.464C312.488+120.795+313.015+121.873+313.665+121.873C314.315+121.873+314.842+120.795+314.842+119.464C314.842+118.133+314.315+117.055+313.665+117.055C313.015+117.055+312.488+118.133+312.488+119.464" opacity="1" fill="#121b46"/>
<path d="M304.649+119.464C304.649+120.795+304.122+121.873+303.472+121.873C302.822+121.873+302.295+120.795+302.295+119.464C302.295+118.133+302.822+117.055+303.472+117.055C304.122+117.055+304.649+118.133+304.649+119.464" opacity="1" fill="#121b46"/>
<path d="M305.627+111.107C305.078+110.62+304.457+110.461+303.803+110.432C303.156+110.417+302.491+110.493+301.861+110.708C301.226+110.901+300.64+111.259+300.151+111.687C299.641+112.1+299.282+112.646+298.984+113.184C298.833+113.456+298.931+113.798+299.203+113.95C299.42+114.07+299.683+114.032+299.857+113.873L299.905+113.828C300.288+113.476+300.656+113.146+301.067+112.905C301.462+112.639+301.907+112.493+302.35+112.378C302.798+112.274+303.264+112.219+303.741+112.244C304.21+112.259+304.71+112.284+305.227+112.158L305.376+112.121C305.692+112.044+305.886+111.725+305.808+111.408C305.779+111.287+305.714+111.184+305.627+111.107" opacity="1" fill="#121b46"/>
<path d="M311.51+111.107C312.059+110.62+312.68+110.461+313.333+110.432C313.981+110.417+314.646+110.493+315.276+110.708C315.911+110.901+316.496+111.259+316.986+111.687C317.496+112.1+317.854+112.646+318.153+113.184C318.304+113.456+318.206+113.798+317.934+113.95C317.717+114.07+317.453+114.032+317.28+113.873L317.232+113.828C316.849+113.476+316.481+113.146+316.07+112.905C315.675+112.639+315.23+112.493+314.786+112.378C314.339+112.274+313.872+112.219+313.396+112.244C312.927+112.259+312.426+112.284+311.91+112.158L311.761+112.121C311.445+112.044+311.251+111.725+311.328+111.408C311.358+111.287+311.423+111.184+311.51+111.107" opacity="1" fill="#121b46"/>
<path d="M308.841+115.783C309.049+116.69+309.202+117.592+309.37+118.485C309.545+119.375+309.709+120.264+309.962+121.108C310.02+121.321+310.086+121.529+310.161+121.73C310.222+121.895+310.371+122.212+310.366+122.508C310.397+123.109+310.012+123.699+309.521+123.936C309.02+124.218+308.441+124.174+307.985+124.018C307.522+123.851+307.118+123.6+306.769+123.291C307.613+123.608+308.6+123.856+309.195+123.407C309.494+123.18+309.655+122.877+309.612+122.548C309.597+122.379+309.544+122.271+309.436+122.013C309.345+121.787+309.265+121.561+309.197+121.332C308.94+120.414+308.807+119.488+308.756+118.56C308.701+117.634+308.72+116.706+308.841+115.783" opacity="1" fill="#121b46"/>
<path d="M287.9+122.597C287.887+122.044+288.04+121.431+288.528+121.003C289.047+120.578+289.785+120.617+290.345+120.827C290.941+121.034+291.429+121.441+291.813+121.898C292.206+122.36+292.492+122.861+292.725+123.437C292.808+123.642+292.709+123.877+292.504+123.96C292.348+124.022+292.177+123.981+292.067+123.869L292.04+123.842C291.649+123.444+291.156+123.02+290.691+122.888C290.458+122.827+290.285+122.835+290.124+122.951C289.957+123.068+289.829+123.318+289.719+123.576C289.514+124.104+289.39+124.722+289.841+124.967C290.314+125.235+291.006+125.17+291.624+125.088C291.041+125.344+290.397+125.559+289.665+125.351C289.293+125.231+288.998+124.808+288.973+124.428C288.938+124.046+288.992+123.7+289.087+123.361C289.188+123.026+289.328+122.67+289.658+122.376C289.992+122.076+290.517+122.006+290.89+122.122C291.653+122.351+292.168+122.792+292.646+123.304L291.961+123.709C291.592+122.786+290.986+121.826+290.111+121.394C289.674+121.185+289.156+121.079+288.742+121.311C288.309+121.536+288.047+122.068+287.9+122.597" opacity="1" fill="#121b46"/>
<path d="M328.62+122.597C328.633+122.044+328.48+121.431+327.992+121.003C327.473+120.578+326.735+120.617+326.175+120.827C325.579+121.034+325.091+121.441+324.707+121.898C324.314+122.36+324.028+122.861+323.795+123.437C323.712+123.642+323.811+123.877+324.016+123.96C324.172+124.022+324.343+123.981+324.453+123.869L324.48+123.842C324.871+123.444+325.364+123.02+325.829+122.888C326.062+122.827+326.234+122.835+326.396+122.951C326.562+123.068+326.691+123.318+326.8+123.576C327.006+124.104+327.129+124.722+326.679+124.967C326.206+125.235+325.514+125.17+324.896+125.088C325.479+125.344+326.123+125.559+326.855+125.351C327.226+125.231+327.522+124.808+327.547+124.428C327.582+124.046+327.528+123.7+327.433+123.361C327.332+123.026+327.192+122.67+326.862+122.376C326.528+122.076+326.003+122.006+325.629+122.122C324.867+122.351+324.352+122.792+323.873+123.304L324.559+123.709C324.928+122.786+325.534+121.826+326.409+121.394C326.846+121.185+327.364+121.079+327.778+121.311C328.211+121.536+328.473+122.068+328.62+122.597" opacity="1" fill="#121b46"/>
<path d="M304.511+127.046C304.511+127.046+308.094+129.046+312.178+127.046C312.178+127.046+308.886+134.963+304.511+127.046" opacity="1" fill="#ffffff"/>
<path d="M409.35+335.996C406.651+376.401+404.949+419.161+404.949+419.161L413.364+424.246L420.569+417.996L440.304+335.996L409.35+335.996Z" opacity="1" fill="#cc6f49"/>
<path d="M420.955+417.111C421.152+416.92+421.474+417.02+421.536+417.289C421.809+418.454+422.433+421.071+423.127+423.578C423.859+426.221+421.825+428.28+420.928+429.036C420.679+429.245+420.374+429.348+420.049+429.348L382.381+429.32C382.381+429.32+380.69+426.729+392.854+423.805C405.018+420.882+400.395+417.342+404.162+417.848C407.93+418.354+412.658+423.485+416.314+420.874C418.833+419.074+420.291+417.757+420.955+417.111" opacity="1" fill="#82d8cd"/>
<path d="M408.696+346.163C408.696+346.163+421.529+351.829+436.113+353.329C436.113+353.329+425.779+357.246+408.279+351.329L408.696+346.163Z" opacity="1" fill="#121b46"/>
<path d="M451.901+335.996L454.561+417.996L461.113+424.246L469.976+419.161C469.976+419.161+475.779+376.401+480.172+335.996L451.901+335.996Z" opacity="1" fill="#cc6f49"/>
<path d="M454.712+417.111C454.515+416.92+454.194+417.02+454.131+417.289C453.859+418.454+453.234+421.071+452.54+423.578C451.808+426.221+453.843+428.28+454.74+429.036C454.988+429.245+455.294+429.348+455.618+429.348L493.286+429.32C493.286+429.32+494.978+426.729+482.813+423.805C470.649+420.882+475.273+417.342+471.505+417.848C467.738+418.354+463.01+423.485+459.354+420.874C456.835+419.074+455.376+417.757+454.712+417.111" opacity="1" fill="#82d8cd"/>
<path d="M452.446+354.079C452.446+354.079+467.279+353.413+478.946+346.663L478.113+354.079C478.113+354.079+463.113+357.079+452.446+354.079" opacity="1" fill="#121b46"/>
<path d="M428.779+232.496C428.779+232.496+416.279+257.496+413.279+279.996C410.279+302.496+408.529+345.996+408.529+345.996C408.529+345.996+449.279+364.246+480.279+345.996C480.279+345.996+493.779+257.496+478.779+232.746L428.779+232.496Z" opacity="1" fill="#fdb32c"/>
<path d="M442.594+309.121C444.653+307.631+446.614+306.139+448.419+304.445C450.242+302.772+451.878+300.93+453.523+298.991C452.551+301.35+450.964+303.433+449.098+305.179C447.214+306.905+445.019+308.33+442.594+309.121" opacity="1" fill="#121b46"/>
<path d="M447.368+311.636C449.095+310.074+450.77+308.573+452.319+306.924C453.889+305.295+455.305+303.547+456.781+301.747C455.992+303.947+454.642+305.914+453.043+307.614C451.423+309.293+449.524+310.738+447.368+311.636" opacity="1" fill="#121b46"/>
<path d="M431.529+237.996C429.855+242.245+428.238+246.514+426.724+250.819C425.185+255.114+423.728+259.438+422.391+263.797C419.747+272.519+417.383+281.345+416.903+290.469L414.351+317.743L412.993+331.374L411.529+344.996L412.505+331.331L413.585+317.674L415.909+290.373C416.117+288.1+416.307+285.828+416.648+283.543C416.992+281.27+417.419+279.013+417.949+276.784C418.99+272.32+420.215+267.905+421.661+263.565C424.518+254.876+427.806+246.338+431.529+237.996" opacity="1" fill="#121b46"/>
<path d="M484.973+237.951C482.775+241.122+481.39+243.113+481.168+243.432C481.16+243.444+481.161+243.443+481.157+243.451C476.758+244.238+473.609+246.145+472.032+247.144C470.815+247.915+470.884+248.811+471.083+249.347C471.185+249.619+471.481+249.72+471.733+249.583C472.933+248.929+475.433+248.081+476.17+248.757C477.002+249.52+468.983+256.596+469.783+257.926C470.104+258.46+475.947+253.58+475.947+253.58C475.947+253.58+470.656+260.005+471.675+260.352C472.694+260.7+478.074+255.654+478.074+255.654C478.074+255.654+473.551+262.705+474.726+262.618C475.901+262.532+480.16+257.589+480.16+257.589C478.786+260.339+478.61+261.659+478.687+262.273C478.723+262.565+479.03+262.68+479.241+262.478C481.818+260.023+484.868+252.405+486.086+249.165L486.087+249.167L486.111+249.198C488.712+247.671+491.24+246.031+493.699+244.305C490.784+242.193+487.832+240.136+484.973+237.951" opacity="1" fill="#cc6f49"/>
<path d="M471.529+168.496C471.529+168.496+478.029+167.496+488.029+173.496C498.029+179.496+523.279+202.746+522.779+211.496C522.279+220.246+489.529+248.746+489.529+248.746L482.279+239.746L500.029+213.496L475.612+190.683L471.529+168.496Z" opacity="1" fill="#ffffff"/>
<path d="M463.282+164.14C462.909+161.987+462.644+159.625+462.831+157.768L462.831+157.76C462.917+156.843+463.111+156.05+463.461+155.468L454.377+150.824L444.81+153.885C445.16+154.468+445.546+156.843+445.631+157.76L445.439+156.185C445.626+158.042+445.553+161.987+445.18+164.14C444.629+167.287+443.836+169.976+443.836+169.976L451.511+169.976L453.26+169.976L464.626+169.976C464.626+169.976+463.834+167.287+463.282+164.14" opacity="1" fill="#cc6f49"/>
<path d="M445.44+156.185C445.44+156.185+451.625+160.539+463.04+156.524C463.04+156.524+454.116+169.51+445.44+156.185" opacity="1" fill="#c4533a"/>
<path d="M428.946+228.496C428.342+230.708+427.946+234.163+427.946+234.163C458.529+240.746+479.363+234.163+479.363+234.163C479.363+234.163+480.029+233.579+479.363+229.913C478.696+226.246+483.529+206.663+484.779+201.496C486.029+196.329+486.196+181.663+485.279+176.496C484.363+171.329+475.779+168.246+472.779+168.579C469.779+168.913+464.196+166.246+464.196+166.246C454.863+174.496+444.446+166.246+444.446+166.246C444.446+166.246+440.363+168.663+433.029+168.996C433.029+168.996+421.279+176.163+420.446+184.163C419.613+192.163+431.196+220.246+428.946+228.496" opacity="1" fill="#ffffff"/>
<path d="M440.191+210.938C441.253+211.452+442.391+211.707+443.541+211.729C444.688+211.777+445.838+211.666+446.99+211.503C449.277+211.164+451.676+210.795+454.084+211.054C456.474+211.305+458.742+211.929+461.018+212.289C462.157+212.467+463.309+212.558+464.457+212.488C465.607+212.452+466.75+212.212+467.84+211.768C466.851+212.416+465.683+212.773+464.507+212.977C463.322+213.148+462.118+213.145+460.929+213.053C458.548+212.86+456.265+212.263+453.986+212.049C451.712+211.779+449.426+212.102+447.065+212.265C445.887+212.337+444.686+212.368+443.497+212.214C442.314+212.028+441.138+211.649+440.191+210.938" opacity="1" fill="#121b46"/>
<path d="M443.946+166.746C442.801+168.71+441.763+170.762+441.178+172.931C440.895+174.004+440.708+175.136+440.933+176.167C441.137+177.194+441.938+178.002+442.938+178.168C443.94+178.348+445.03+178.063+446.05+177.685C447.078+177.293+448.067+176.764+449.023+176.182C449.979+175.598+450.904+174.954+451.806+174.279L453.146+173.241L453.82+172.704L453.92+172.63L453.998+172.578L454.025+172.561C454.065+172.538+454.146+172.508+454.211+172.5C454.12+172.017+455.086+173.377+454.753+173.148L454.765+173.128C454.8+173.072+454.804+172.991+454.781+172.938C454.763+172.9+454.802+172.974+454.809+172.986C454.866+173.092+454.927+173.201+455.005+173.318C456.175+175.175+457.672+176.918+459.399+178.274C460.265+178.949+461.217+179.528+462.24+179.811C462.749+179.947+463.272+180.047+463.789+180.006C464.325+180.037+464.773+179.899+465.137+179.598C465.868+178.978+466.1+177.813+466.16+176.733C466.222+175.628+466.11+174.501+465.957+173.385C465.651+171.143+465.09+168.932+464.446+166.746C465.304+168.86+465.965+171.055+466.44+173.304C466.649+174.433+466.807+175.581+466.791+176.756C466.754+177.897+466.638+179.214+465.642+180.178C465.152+180.64+464.429+180.857+463.831+180.843C463.21+180.904+462.593+180.791+462.008+180.644C460.824+180.329+459.784+179.705+458.848+178.999C456.978+177.561+455.432+175.815+454.152+173.838C454.074+173.717+453.997+173.577+453.922+173.431C453.897+173.379+453.895+173.393+453.853+173.288C453.808+173.168+453.791+173.019+453.803+172.895L453.808+172.85C453.471+172.614+454.436+173.958+454.336+173.482C454.391+173.478+454.465+173.451+454.496+173.432L454.502+173.429C454.515+173.42+454.499+173.432+454.491+173.437L454.419+173.49L453.75+174.008C453.297+174.36+452.839+174.707+452.373+175.046C451.443+175.723+450.487+176.37+449.491+176.96C448.494+177.548+447.459+178.088+446.351+178.495C445.253+178.891+444.034+179.191+442.778+178.917C441.506+178.668+440.494+177.522+440.317+176.293C440.11+175.072+440.368+173.893+440.712+172.792C441.476+170.603+442.611+168.594+443.946+166.746" opacity="1" fill="#121b46"/>
<path d="M430.613+234.746C430.805+233.526+431.069+232.32+431.377+231.117C431.543+230.518+431.732+229.926+431.955+229.338C432.067+229.045+432.185+228.752+432.322+228.463C432.453+228.174+432.529+227.92+432.636+227.651C433.228+225.382+433.152+222.897+432.964+220.495C432.774+218.076+432.341+215.673+431.748+213.314C431.445+212.137+431.102+210.963+430.644+209.834C430.253+208.673+429.687+207.591+429.113+206.496C430.665+208.429+431.707+210.742+432.486+213.099C433.27+215.465+433.742+217.926+433.96+220.411C434.122+222.891+434.197+225.435+433.36+227.901C433.222+228.196+433.085+228.521+432.942+228.783C432.796+229.04+432.663+229.309+432.534+229.582C432.277+230.128+432.055+230.696+431.84+231.267C431.381+232.403+431.024+233.58+430.613+234.746" opacity="1" fill="#121b46"/>
<path d="M476.946+234.163C476.478+232.795+476.206+231.34+476.217+229.861C476.23+229.122+476.325+228.38+476.509+227.657C476.703+226.915+476.951+226.256+477.115+225.575C477.793+222.795+478.383+219.963+478.979+217.142C479.592+214.322+480.179+211.495+480.833+208.68L481.804+204.456C482.162+203.054+482.483+201.645+482.863+200.246C482.529+203.124+482.071+205.979+481.587+208.83C481.111+211.683+480.549+214.519+479.957+217.351C479.333+220.176+478.72+223.001+477.85+225.789C477.629+226.501+477.324+227.183+477.115+227.827C476.897+228.491+476.769+229.186+476.703+229.89C476.531+231.3+476.695+232.737+476.946+234.163" opacity="1" fill="#121b46"/>
<path d="M412.108+143.647C411.838+143.537+411.564+143.686+411.495+143.965C411.164+145.291+410.095+147.705+409.098+147.79C407.973+147.885+408.195+137.193+406.675+136.881C406.064+136.755+405.701+144.36+405.701+144.36C405.701+144.36+404.553+136.117+403.608+136.631C402.662+137.146+402.734+144.521+402.734+144.521C402.734+144.521+400.606+136.419+399.875+137.342C399.143+138.265+399.897+144.747+399.897+144.747C398.803+141.874+397.951+140.851+397.447+140.491C397.208+140.32+396.916+140.469+396.92+140.76C396.984+144.316+400.521+151.71+402.081+154.805L402.076+154.805L402.045+154.805C401.745+156.187+401.483+157.574+401.239+158.964C404.197+158.513+407.136+157.816+410.058+157.006C409.818+155.931+409.67+155.263+409.629+155.077C409.629+155.075+409.629+155.076+409.628+155.074C412.039+151.295+412.754+147.676+413.087+145.835C413.343+144.419+412.637+143.863+412.108+143.647" opacity="1" fill="#cc6f49"/>
<path d="M401.113+156.996L410.363+156.663L417.279+186.746C417.279+186.746+424.446+170.079+433.029+168.996C441.613+167.913+430.529+206.663+430.529+206.663C430.529+206.663+421.529+219.496+412.613+217.329C403.696+215.163+400.946+199.163+400.529+194.996C400.113+190.829+401.113+156.996+401.113+156.996" opacity="1" fill="#ffffff"/>
<path d="M415.446+190.079C415.798+188.768+416.342+187.542+416.941+186.347L417.643+184.946L417.842+186.532C417.965+187.516+418.055+188.502+418.083+189.496C418.102+190.489+418.097+191.485+417.946+192.496C417.6+191.534+417.401+190.558+417.226+189.58C417.058+188.6+416.955+187.615+416.883+186.626L417.784+186.812C417.105+187.95+416.372+189.057+415.446+190.079" opacity="1" fill="#121b46"/>
<path d="M426.613+210.996C427.095+209.273+427.853+207.685+428.674+206.132C429.521+204.595+430.435+203.091+431.613+201.746C431.124+203.484+430.371+205.063+429.551+206.609C428.705+208.141+427.797+209.635+426.613+210.996" opacity="1" fill="#121b46"/>
<path d="M474.739+137.484C474.196+135.778+472.376+134.41+470.56+134.855C471.365+111.131+451.589+114.327+451.589+114.327C439.175+115.403+437.759+128.598+437.851+135.317C437.45+135.084+437.073+134.908+436.863+134.856C435.044+134.402+433.217+135.774+432.672+137.484C432.238+138.846+432.531+140.386+433.309+141.586C433.956+142.583+435.006+143.512+436.127+143.94C436.383+144.037+437.437+144.217+438.293+144.193C440.214+159.698+454.262+158.172+454.262+158.172C466.442+158.775+469.605+150.269+470.315+144.127C470.768+144.07+471.144+143.993+471.284+143.94C472.405+143.512+473.455+142.583+474.101+141.586C474.88+140.386+475.174+138.846+474.739+137.484" opacity="1" fill="#cc6f49"/>
<path d="M460.177+143.409C460.177+145.603+461.955+147.382+464.15+147.382C466.344+147.382+468.123+145.603+468.123+143.409C468.123+141.215+466.344+139.436+464.15+139.436C461.955+139.436+460.177+141.215+460.177+143.409" opacity="1" fill="#c4533a"/>
<path d="M440.402+143.409C440.402+145.603+442.18+147.382+444.375+147.382C446.569+147.382+448.348+145.603+448.348+143.409C448.348+141.215+446.569+139.436+444.375+139.436C442.18+139.436+440.402+141.215+440.402+143.409" opacity="1" fill="#c4533a"/>
<path d="M458.084+135.699C458.084+136.996+458.598+138.048+459.231+138.048C459.865+138.048+460.379+136.996+460.379+135.699C460.379+134.402+459.865+133.35+459.231+133.35C458.598+133.35+458.084+134.402+458.084+135.699" opacity="1" fill="#121b46"/>
<path d="M461.573+132.607C461.38+132.987+461.125+133.319+460.797+133.609C460.472+133.899+460.059+134.125+459.596+134.231L459.577+134.235C459.348+134.288+459.121+134.145+459.068+133.917C459.015+133.688+459.158+133.46+459.386+133.407C459.424+133.399+459.463+133.396+459.499+133.397C460.14+133.422+460.853+133.032+461.339+132.465L461.347+132.456C461.396+132.398+461.483+132.392+461.541+132.441C461.59+132.483+461.601+132.552+461.573+132.607" opacity="1" fill="#121b46"/>
<path d="M450.441+135.699C450.441+136.996+449.927+138.048+449.294+138.048C448.66+138.048+448.146+136.996+448.146+135.699C448.146+134.402+448.66+133.35+449.294+133.35C449.927+133.35+450.441+134.402+450.441+135.699" opacity="1" fill="#121b46"/>
<path d="M447.185+132.465C447.671+133.031+448.384+133.422+449.026+133.397C449.26+133.387+449.457+133.57+449.467+133.804C449.476+134.039+449.293+134.236+449.059+134.245C449.022+134.247+448.985+134.243+448.95+134.236L448.928+134.231C448.464+134.124+448.051+133.899+447.727+133.609C447.4+133.319+447.145+132.987+446.951+132.607C446.916+132.539+446.943+132.457+447.01+132.423C447.068+132.393+447.137+132.408+447.177+132.455L447.185+132.465Z" opacity="1" fill="#121b46"/>
<path d="M458.57+142.806C458.173+143.58+457.567+144.249+456.841+144.772C456.116+145.296+455.208+145.633+454.272+145.625C453.342+145.602+452.43+145.285+451.716+144.743C451.341+144.497+451.048+144.154+450.724+143.862C450.455+143.514+450.191+143.166+449.955+142.806C450.309+143.065+450.632+143.342+450.957+143.609C451.318+143.828+451.64+144.098+452.007+144.283C452.719+144.69+453.499+144.914+454.275+144.927C455.056+144.946+455.835+144.699+456.553+144.312C457.269+143.916+457.944+143.403+458.57+142.806" opacity="1" fill="#121b46"/>
<path d="M455.471+146.971C455.144+147.262+454.696+147.367+454.263+147.381C453.829+147.367+453.387+147.249+453.055+146.971C453.479+147.038+453.865+147.122+454.264+147.107C454.662+147.122+455.053+147.053+455.471+146.971" opacity="1" fill="#121b46"/>
<path d="M451.395+127.552C450.86+127.077+450.254+126.922+449.618+126.894C448.987+126.879+448.338+126.953+447.724+127.162C447.105+127.352+446.534+127.7+446.057+128.118C445.559+128.52+445.209+129.052+444.918+129.577C444.771+129.842+444.867+130.177+445.132+130.323C445.344+130.441+445.6+130.404+445.77+130.248L445.817+130.205C446.19+129.862+446.548+129.539+446.95+129.305C447.335+129.046+447.768+128.904+448.201+128.792C448.637+128.69+449.092+128.636+449.556+128.66C450.014+128.676+450.502+128.699+451.005+128.576L451.15+128.541C451.458+128.466+451.648+128.154+451.573+127.846C451.543+127.728+451.48+127.627+451.395+127.552" opacity="1" fill="#450d20"/>
<path d="M457.13+127.552C457.665+127.077+458.272+126.922+458.908+126.894C459.539+126.879+460.188+126.953+460.802+127.162C461.421+127.352+461.992+127.7+462.469+128.118C462.967+128.52+463.317+129.052+463.608+129.577C463.754+129.842+463.659+130.177+463.394+130.323C463.182+130.441+462.925+130.404+462.756+130.248L462.709+130.205C462.336+129.862+461.977+129.539+461.576+129.305C461.191+129.046+460.758+128.904+460.325+128.792C459.889+128.69+459.434+128.636+458.97+128.66C458.512+128.676+458.024+128.699+457.521+128.576L457.375+128.541C457.067+128.466+456.878+128.154+456.953+127.846C456.983+127.728+457.046+127.627+457.13+127.552" opacity="1" fill="#450d20"/>
<path d="M454.528+132.11C454.731+132.995+454.881+133.874+455.045+134.745C455.215+135.613+455.374+136.48+455.621+137.302C455.678+137.509+455.742+137.713+455.816+137.909C455.876+138.069+456.019+138.379+456.015+138.667C456.045+139.254+455.67+139.828+455.191+140.06C454.703+140.334+454.138+140.291+453.694+140.14C453.242+139.977+452.848+139.732+452.507+139.43C453.332+139.74+454.294+139.982+454.874+139.544C455.165+139.322+455.322+139.027+455.28+138.706C455.265+138.541+455.214+138.436+455.108+138.185C455.019+137.965+454.942+137.743+454.876+137.521C454.625+136.626+454.495+135.723+454.445+134.818C454.392+133.915+454.41+133.01+454.528+132.11" opacity="1" fill="#121b46"/>
<path d="M434.111+138.754C434.097+138.214+434.247+137.617+434.722+137.199C435.228+136.785+435.948+136.823+436.495+137.028C437.075+137.23+437.55+137.627+437.925+138.072C438.309+138.523+438.588+139.011+438.815+139.573C438.896+139.773+438.799+140.002+438.598+140.083C438.448+140.144+438.281+140.104+438.173+139.994L438.147+139.968C437.765+139.58+437.285+139.166+436.832+139.038C436.604+138.979+436.436+138.986+436.279+139.098C436.116+139.213+435.991+139.457+435.884+139.708C435.684+140.223+435.563+140.825+436.003+141.064C436.464+141.326+437.139+141.263+437.742+141.183C437.173+141.432+436.545+141.642+435.831+141.439C435.468+141.322+435.18+140.91+435.157+140.539C435.122+140.167+435.175+139.829+435.268+139.499C435.366+139.172+435.503+138.825+435.824+138.539C436.15+138.246+436.662+138.178+437.026+138.291C437.769+138.515+438.271+138.944+438.738+139.443L438.07+139.838C437.711+138.939+437.12+138.003+436.266+137.581C435.84+137.377+435.335+137.274+434.931+137.501C434.508+137.72+434.254+138.238+434.111+138.754" opacity="1" fill="#121b46"/>
<path d="M473.812+138.754C473.826+138.214+473.676+137.617+473.201+137.199C472.694+136.785+471.974+136.823+471.428+137.028C470.848+137.23+470.372+137.627+469.997+138.072C469.614+138.523+469.334+139.011+469.109+139.573C469.027+139.773+469.124+140.002+469.325+140.083C469.476+140.144+469.642+140.104+469.751+139.994L469.777+139.968C470.158+139.58+470.638+139.166+471.091+139.038C471.319+138.979+471.487+138.986+471.644+139.098C471.806+139.213+471.931+139.457+472.038+139.708C472.238+140.223+472.36+140.825+471.919+141.064C471.458+141.326+470.783+141.263+470.181+141.183C470.75+141.432+471.378+141.642+472.092+141.439C472.454+141.322+472.742+140.91+472.765+140.539C472.801+140.167+472.748+139.829+472.655+139.499C472.556+139.172+472.419+138.825+472.099+138.539C471.773+138.246+471.26+138.178+470.897+138.291C470.154+138.515+469.652+138.944+469.185+139.443L469.852+139.838C470.211+138.939+470.803+138.003+471.657+137.581C472.084+137.377+472.587+137.274+472.993+137.501C473.414+137.72+473.669+138.238+473.812+138.754" opacity="1" fill="#121b46"/>
<path d="M482.979+146.596C483.309+142.586+480.739+138.966+478.159+135.876C475.589+132.786+472.75+129.516+472.37+125.516C472.159+123.256+472.769+120.956+472.33+118.726C471.609+115.006+468.169+112.406+464.649+110.996C459.259+108.836+453.089+108.666+447.58+110.526C442.08+112.376+438.12+117.446+434.37+121.896C429.679+127.466+428.149+135.546+430.489+142.456C431.33+144.926+432.629+147.266+433.12+149.836C433.669+152.756+433.139+155.766+432.54+158.676C431.949+161.586+431.29+164.556+431.589+167.506C431.649+168.116+431.759+168.726+431.929+169.326C432.599+169.096+433.029+168.996+433.029+168.996C440.359+168.666+444.449+166.246+444.449+166.246C444.449+166.246+444.54+166.316+444.719+166.446C444.879+165.736+445.04+164.946+445.179+164.136C445.519+162.146+445.62+158.606+445.479+156.626C445.479+156.606+445.479+156.586+445.469+156.566C445.459+156.456+445.439+156.336+445.419+156.226C442.179+154.386+439.109+150.866+438.279+144.186C437.429+144.216+436.379+144.036+436.129+143.936C435.009+143.516+433.959+142.586+433.309+141.586C432.529+140.386+432.239+138.846+432.669+137.486C433.219+135.776+435.04+134.406+436.859+134.856C437.036+134.906+437.333+135.037+437.661+135.213C437.823+135.572+437.966+135.938+438.144+136.289C438.51+137.012+439.047+137.806+439.856+137.846C440.676+137.887+441.291+137.129+441.717+136.428C442.715+134.787+443.5+133.017+444.046+131.176C444.456+129.799+444.732+128.382+445.199+127.023C445.666+125.664+446.346+124.34+447.42+123.385C448.844+122.12+451.064+121.606+452.901+122.106C452.52+123.537+453.06+125.115+454.067+126.201C455.075+127.287+456.491+127.926+457.939+128.236C459.388+128.545+460.882+128.552+462.364+128.542C463.677+128.534+465.17+128.59+466.033+129.582C466.734+130.389+466.778+131.573+466.642+132.634C466.507+133.695+466.23+134.767+466.423+135.819C466.557+136.544+467.072+137.323+467.808+137.297C468.314+137.28+468.718+136.891+469.07+136.527C469.613+135.965+470.155+135.402+470.698+134.84C472.464+134.493+474.212+135.826+474.739+137.486C475.169+138.846+474.879+140.386+474.099+141.586C473.459+142.586+472.409+143.516+471.279+143.936C471.139+143.986+470.769+144.066+470.309+144.116C469.83+148.396+468.139+153.826+463.04+156.516C462.939+156.896+462.87+157.316+462.83+157.756L462.83+157.766C462.649+159.626+462.909+161.986+463.279+164.136C463.439+165.016+463.609+165.856+463.769+166.606C463.909+166.496+464.059+166.376+464.199+166.246C464.199+166.246+469.779+168.916+472.779+168.576C474.139+168.426+476.649+168.976+479.069+170.116C479.059+169.376+478.969+168.636+478.849+167.926C478.37+165.116+477.389+162.296+477.79+159.466C478.439+154.856+482.609+151.246+482.979+146.596" opacity="1" fill="#450d20"/>
<path d="M603.011+167.046C603.011+167.046+599.845+169.463+596.511+170.629C593.178+171.796+580.845+175.629+579.678+183.796C578.511+191.963+575.095+266.213+575.095+266.213L597.095+266.213L605.345+171.213L603.011+167.046Z" opacity="1" fill="#ff5c5b"/>
<path d="M553.008+225.931C548.498+223.687+544.32+223.306+542.224+223.145C540.651+223.025+540.12+223.81+539.942+224.377C539.851+224.666+540.043+224.934+540.354+224.977C541.836+225.183+544.586+226.039+544.785+227.058C545.011+228.209+533.32+229.067+533.142+230.665C533.071+231.307+541.408+230.91+541.408+230.91C541.408+230.91+532.536+232.93+533.199+233.852C533.862+234.775+541.904+233.951+541.904+233.951C541.904+233.951+533.29+236.968+534.376+237.628C535.462+238.288+542.454+236.851+542.454+236.851C539.437+238.271+538.411+239.254+538.073+239.81C537.912+240.075+538.107+240.36+538.424+240.326C542.357+239.892+550.219+235.368+553.336+233.493C553.336+233.494+553.337+233.494+553.338+233.495C554.971+234.402+556.644+235.252+558.345+236.056L558.345+225.642C555.519+225.797+553.637+225.896+553.008+225.931" opacity="1" fill="#ed8d5d"/>
<path d="M554.595+225.421C554.595+225.421+554.095+236.296+554.595+237.421C555.095+238.546+585.47+247.171+594.72+243.421C603.97+239.671+606.97+200.046+605.97+193.171C604.97+186.296+594.97+174.421+592.72+174.421C590.47+174.421+581.72+176.421+579.845+184.671C577.97+192.921+576.595+224.546+576.595+224.546L554.595+225.421Z" opacity="1" fill="#ff5c5b"/>
<path d="M567.185+403.713C567.012+410+566.875+415.563+566.776+420.076L578.261+422.88L584.509+419.678L587.796+403.713L567.185+403.713Z" opacity="1" fill="#ed8d5d"/>
<path d="M566.494+417.005C566.494+417.005+563.032+420.317+560.021+421.672C557.011+423.026+543.464+422.274+544.367+429.047L575.676+429.047L578.461+426.263L578.461+429.349L584.707+429.349C584.707+429.349+587.115+422.424+584.857+418.209C584.857+418.209+580.342+422.274+575.375+420.467C570.407+418.661+566.494+417.005+566.494+417.005" opacity="1" fill="#121b46"/>
<path d="M612.083+403.713L612.604+419.08L622.928+423.547L629.74+419.279C630.208+415.016+630.809+409.723+631.496+403.713L612.083+403.713Z" opacity="1" fill="#ed8d5d"/>
<path d="M611.91+417.005C611.91+417.005+608.448+420.317+605.437+421.672C602.428+423.026+588.88+422.274+589.783+429.047L621.093+429.047L623.877+426.263L623.877+429.349L630.124+429.349C630.124+429.349+632.532+422.424+630.274+418.209C630.274+418.209+625.759+422.274+620.791+420.467C615.824+418.661+611.91+417.005+611.91+417.005" opacity="1" fill="#121b46"/>
<path d="M583.595+244.796L641.345+244.796C641.345+244.796+646.595+267.296+645.345+283.796C644.095+300.296+631.345+414.796+631.345+414.796L610.845+414.796L608.595+297.546L586.595+413.796L565.845+413.796C565.845+413.796+563.595+285.796+583.595+244.796" opacity="1" fill="#121b46"/>
<path d="M600.761+246.046L600.54+252.222L600.284+258.396L599.688+270.739L599.663+270.569L604.387+283.547C605.97+287.872+607.473+292.223+609.02+296.56L608.144+296.713C608.149+291.713+608.21+286.713+608.284+281.713C608.341+276.713+608.454+271.713+608.595+266.713C608.736+271.713+608.849+276.713+608.905+281.713C608.98+286.713+609.04+291.713+609.046+296.713L609.049+299.297L608.17+296.865C606.606+292.535+604.997+288.22+603.469+283.878L598.86+270.857L598.829+270.771L598.835+270.687L599.739+258.363L600.233+252.204L600.761+246.046Z" opacity="1" fill="#ffffff"/>
<path d="M639.428+266.88C640.067+272.96+640.529+279.065+640.496+285.198C640.477+286.733+640.347+288.273+640.218+289.79L639.838+294.359L639.078+303.497L635.882+340.036L632.456+376.554L630.661+394.805L628.761+413.047L630.173+394.76L631.691+376.484L634.888+339.944L638.316+303.427L639.212+294.301C639.481+291.259+639.884+288.215+640.01+285.185C640.206+279.091+639.842+272.976+639.428+266.88" opacity="1" fill="#ffffff"/>
<path d="M603.761+283.88C602.201+294.608+600.532+305.318+598.848+316.026L593.671+348.128L588.266+380.193L585.483+396.211L582.595+412.213L584.998+396.132L587.507+380.068L592.686+347.965L598.092+315.901C599.935+305.22+601.794+294.541+603.761+283.88" opacity="1" fill="#ffffff"/>
<path d="M623.32+174.842C620.172+166.872+622.929+150.215+623.28+148.158C623.296+148.086+623.303+148.023+623.32+147.951L601.96+159.962C602.318+160.56+602.517+161.373+602.605+162.313L602.605+162.321C602.797+164.226+602.525+166.649+602.143+168.857C601.577+172.085+600.764+174.842+600.764+174.842L623.32+174.842Z" opacity="1" fill="#ed8d5d"/>
<path d="M602.144+168.856C613.756+170.322+619.638+156.454+619.853+155.937C617.709+159.339+614.601+161.061+611.565+161.882C607.827+162.902+604.2+162.56+602.678+162.336C602.654+162.328+602.63+162.328+602.606+162.32C602.797+164.225+602.526+166.648+602.144+168.856" opacity="1" fill="#e6794e"/>
<path d="M601.345+169.046C601.345+169.046+604.22+174.671+606.845+174.296C609.47+173.921+622.47+167.046+622.47+167.046C622.47+167.046+627.848+171.061+633.347+171.366C638.845+171.671+647.72+176.296+648.22+189.921C648.72+203.546+641.47+230.296+643.22+240.671C643.22+240.671+643.97+244.421+641.345+244.796L583.595+244.796C583.595+244.796+581.72+242.671+582.72+240.171C583.72+237.671+581.47+207.421+580.595+200.421C579.72+193.421+577.845+181.671+584.47+178.046C591.095+174.421+599.095+172.671+601.345+169.046" opacity="1" fill="#ffffff"/>
<path d="M598.345+172.421C598.336+173.613+598.341+174.799+598.397+175.967C598.429+176.548+598.468+177.131+598.583+177.669C598.638+177.939+598.719+178.185+598.813+178.366C598.873+178.418+598.895+178.473+598.901+178.451C598.922+178.463+599.037+178.46+599.139+178.448C600.114+178.264+601.196+177.639+602.206+177.11C603.224+176.542+604.244+175.946+605.239+175.332L605.617+175.098L605.82+175.457C606.246+176.212+606.699+176.97+607.168+177.706C607.405+178.073+607.637+178.446+607.904+178.791C608.179+179.122+608.436+179.494+608.845+179.671C608.39+179.608+608.028+179.273+607.695+178.983C607.36+178.68+607.047+178.356+606.751+178.019C606.162+177.34+605.629+176.629+605.12+175.885L605.7+176.01C604.727+176.715+603.735+177.374+602.688+177.968C602.167+178.27+601.632+178.552+601.073+178.8C600.503+179.038+599.953+179.3+599.236+179.375C599.045+179.38+598.854+179.399+598.596+179.305C598.302+179.202+598.168+178.977+598.046+178.8C597.884+178.448+597.805+178.118+597.774+177.802C597.707+177.169+597.709+176.562+597.758+175.96C597.849+174.758+598.055+173.579+598.345+172.421" opacity="1" fill="#121b46"/>
<path d="M594.073+237.36L533.301+237.36L533.301+197.509L594.073+197.509L594.073+237.36Z" opacity="1" fill="#121b46"/>
<path d="M628.743+237.36L533.301+237.36L533.301+240.548L628.743+240.548L628.743+237.36Z" opacity="1" fill="#121b46"/>
<path d="M628.743+237.36L594.073+237.36L594.073+240.548L628.743+240.548L628.743+237.36Z" opacity="1" fill="#121b46"/>
<path d="M594.073+237.36L591.682+237.36L591.682+197.509L594.073+197.509L594.073+237.36Z" opacity="1" fill="#121b46"/>
<path d="M567.428+217.213C567.425+215.945+566.884+214.693+565.963+213.845C565.044+212.993+563.794+212.567+562.595+212.631C560.137+212.725+558.209+214.931+558.261+217.213C558.208+219.495+560.134+221.706+562.595+221.798C563.795+221.862+565.045+221.435+565.963+220.582C566.885+219.733+567.424+218.481+567.428+217.213M567.428+217.213C567.44+218.481+566.939+219.743+566.062+220.68C565.194+221.626+563.93+222.24+562.595+222.296C561.266+222.361+559.883+221.878+558.873+220.934C557.861+219.995+557.264+218.611+557.262+217.213C557.263+215.816+557.859+214.43+558.872+213.49C559.881+212.545+561.266+212.063+562.595+212.129C563.93+212.185+565.195+212.798+566.062+213.746C566.94+214.684+567.44+215.946+567.428+217.213" opacity="1" fill="#ffffff"/>
<path d="M622.47+167.046C622.47+167.046+608.345+176.296+609.095+186.546C609.845+196.796+608.345+266.046+608.345+266.046L643.836+266.046C645.217+266.046+646.333+264.924+646.325+263.544C646.268+253.91+646.235+219.307+648.595+210.296C651.345+199.796+651.595+179.546+645.095+174.796C638.595+170.046+627.595+170.296+622.47+167.046" opacity="1" fill="#ff5c5b"/>
<path d="M608.798+240.906C608.798+240.906+641.261+238.713+646.595+237.213L608.751+244.437L608.798+240.906Z" opacity="1" fill="#121b46"/>
<path d="M610.595+261.547C613.345+261.34+616.095+261.243+618.845+261.164C621.595+261.072+624.345+261.06+627.095+261.047C629.845+261.058+632.595+261.071+635.345+261.162L639.47+261.302C640.845+261.385+642.22+261.433+643.595+261.547C642.22+261.66+640.845+261.708+639.47+261.792L635.345+261.931C632.595+262.022+629.845+262.035+627.095+262.046C624.345+262.033+621.595+262.021+618.845+261.93C616.095+261.85+613.345+261.753+610.595+261.547" opacity="1" fill="#121b46"/>
<path d="M602.167+227.823C600.461+228.463+599.322+228.887+598.873+229.054C598.729+229.109+598.653+229.132+598.653+229.132L601.319+236.144C601.319+236.145+601.32+236.145+601.321+236.145C602.033+236.292+602.751+236.421+603.469+236.55C603.016+233.645+602.594+230.734+602.167+227.823" opacity="1" fill="#d17558"/>
<path d="M602.479+234.999C602.479+234.999+593.867+245.144+589.288+247.158C588.995+247.286+588.724+247.072+588.798+246.771C588.955+246.14+589.637+244.895+592.089+242.634C592.089+242.634+585.851+246.103+584.618+245.799C583.383+245.496+590.694+240.033+590.694+240.033C590.694+240.033+583.27+243.232+582.361+242.551C581.452+241.87+589.308+237.28+589.308+237.28C589.308+237.28+581.475+240.162+581.35+239.528C581.04+237.95+591.935+233.623+591.375+232.593C590.878+231.681+587.999+231.689+586.523+231.937C586.212+231.99+585.95+231.792+585.95+231.489C585.95+230.894+586.22+229.987+587.757+229.629C590.129+229.077+595.253+227.965+601.308+229.556L602.479+234.999Z" opacity="1" fill="#ed8d5d"/>
<path d="M645.845+175.796C645.845+175.796+670.095+211.046+670.845+219.546C671.595+228.046+669.595+233.046+647.595+237.046C625.595+241.046+602.595+241.046+602.595+241.046L599.845+226.796L633.845+213.546C633.845+213.546+619.845+193.046+620.345+188.546C620.845+184.046+645.845+175.796+645.845+175.796" opacity="1" fill="#ff5c5b"/>
<path d="M626.261+196.38C627.201+197.777+628.104+199.197+629.02+200.609C629.944+202.016+630.816+203.454+631.715+204.875C632.602+206.304+633.517+207.717+634.381+209.159L636.996+213.474L637.295+213.966L636.743+214.156C634.472+214.939+632.201+215.726+629.913+216.459L623.064+218.7C618.479+220.142+613.893+221.579+609.261+222.88C613.74+221.126+618.266+219.507+622.792+217.893L629.609+215.55C631.876+214.756+634.162+214.016+636.446+213.27L636.194+213.952L633.642+209.6C632.783+208.154+631.976+206.678+631.141+205.218C630.319+203.75+629.468+202.299+628.669+200.817C627.864+199.34+627.043+197.871+626.261+196.38" opacity="1" fill="#121b46"/>
<path d="M640.095+210.546C639.776+211.366+639.252+211.96+638.68+212.5C638.087+213.017+637.444+213.479+636.595+213.713C636.912+212.891+637.436+212.297+638.01+211.759C638.604+211.244+639.246+210.781+640.095+210.546" opacity="1" fill="#121b46"/>
<path d="M623.261+188.713C622.848+187.296+622.683+185.806+622.711+184.317C622.734+182.827+622.977+181.332+623.435+179.891C623.927+178.46+624.691+177.109+625.707+175.984C626.708+174.828+628.07+174.075+629.428+173.546C628.24+174.427+627.135+175.333+626.307+176.484C625.486+177.624+624.826+178.87+624.382+180.209C623.938+181.548+623.664+182.947+623.488+184.37C623.331+185.794+623.232+187.242+623.261+188.713" opacity="1" fill="#121b46"/>
<path d="M629.246+141.518C628.686+139.764+626.812+138.357+624.946+138.823C624.817+138.855+624.617+138.939+624.395+139.047C624.649+132.918+623.754+126.206+619.494+122.502C610.329+114.532+597.178+117.322+594.389+124.495C591.199+132.696+591.036+142.847+591.142+151.527C591.157+152.664+591.191+153.823+591.571+154.894C593.028+159.014+598.902+161.557+602.87+162.38C607.975+163.44+613.102+162.105+617.108+158.777C620.284+156.138+622.339+152.416+623.214+148.385C624.124+148.463+625.412+148.249+625.701+148.139C626.851+147.701+627.929+146.747+628.592+145.725C629.39+144.494+629.69+142.915+629.246+141.518" opacity="1" fill="#ed8d5d"/>
<path d="M597.812+138.889C597.812+140.22+597.285+141.299+596.635+141.299C595.985+141.299+595.458+140.22+595.458+138.889C595.458+137.558+595.985+136.48+596.635+136.48C597.285+136.48+597.812+137.558+597.812+138.889" opacity="1" fill="#121b46"/>
<path d="M605.651+138.889C605.651+140.22+606.178+141.299+606.828+141.299C607.478+141.299+608.005+140.22+608.005+138.889C608.005+137.558+607.478+136.48+606.828+136.48C606.178+136.48+605.651+137.558+605.651+138.889" opacity="1" fill="#121b46"/>
<path d="M597.313+146.178C597.721+146.972+598.342+147.658+599.087+148.195C599.831+148.732+600.762+149.077+601.721+149.07C602.674+149.046+603.611+148.721+604.343+148.165C604.728+147.913+605.029+147.561+605.36+147.261C605.636+146.904+605.907+146.547+606.15+146.178C605.786+146.444+605.455+146.727+605.122+147.002C604.751+147.227+604.42+147.504+604.045+147.693C603.314+148.111+602.515+148.341+601.718+148.354C600.917+148.373+600.12+148.12+599.382+147.723C598.647+147.316+597.956+146.79+597.313+146.178" opacity="1" fill="#121b46"/>
<path d="M600.492+150.45C600.828+150.748+601.288+150.856+601.731+150.869C602.177+150.855+602.63+150.735+602.971+150.45C602.536+150.519+602.14+150.604+601.73+150.589C601.321+150.605+600.921+150.534+600.492+150.45" opacity="1" fill="#121b46"/>
<path d="M604.673+130.533C605.222+130.046+605.844+129.887+606.496+129.858C607.144+129.843+607.809+129.919+608.439+130.134C609.074+130.327+609.659+130.684+610.149+131.113C610.659+131.526+611.018+132.072+611.317+132.609C611.467+132.882+611.369+133.224+611.097+133.375C610.88+133.496+610.616+133.458+610.443+133.298L610.395+133.254C610.012+132.902+609.645+132.571+609.233+132.331C608.838+132.065+608.394+131.919+607.949+131.804C607.502+131.7+607.035+131.644+606.56+131.669C606.09+131.685+605.59+131.709+605.073+131.583L604.925+131.547C604.609+131.47+604.414+131.151+604.491+130.834C604.522+130.713+604.586+130.61+604.673+130.533" opacity="1" fill="#121b46"/>
<path d="M598.791+130.533C598.242+130.046+597.62+129.887+596.967+129.858C596.32+129.843+595.655+129.919+595.025+130.134C594.39+130.327+593.804+130.684+593.315+131.113C592.805+131.526+592.446+132.072+592.147+132.609C591.997+132.882+592.095+133.224+592.367+133.375C592.584+133.496+592.848+133.458+593.021+133.298L593.068+133.254C593.452+132.902+593.819+132.571+594.231+132.331C594.626+132.065+595.07+131.919+595.515+131.804C595.962+131.7+596.428+131.644+596.904+131.669C597.374+131.685+597.874+131.709+598.391+131.583L598.539+131.547C598.855+131.47+599.05+131.151+598.973+130.834C598.942+130.713+598.878+130.61+598.791+130.533" opacity="1" fill="#121b46"/>
<path d="M599.356+134.984C599.148+135.892+598.995+136.794+598.827+137.687C598.652+138.577+598.489+139.466+598.235+140.31C598.176+140.522+598.111+140.73+598.036+140.931C597.974+141.096+597.827+141.413+597.831+141.709C597.8+142.311+598.185+142.9+598.675+143.137C599.177+143.419+599.755+143.375+600.211+143.219C600.675+143.052+601.079+142.801+601.428+142.492C600.584+142.81+599.596+143.057+599.002+142.608C598.704+142.381+598.542+142.079+598.585+141.749C598.6+141.58+598.653+141.472+598.761+141.214C598.852+140.989+598.931+140.762+599+140.533C599.257+139.616+599.39+138.689+599.441+137.761C599.496+136.835+599.477+135.907+599.356+134.984" opacity="1" fill="#121b46"/>
<path d="M627.869+142.595C627.883+142.042+627.729+141.429+627.241+141.001C626.723+140.576+625.984+140.615+625.424+140.825C624.829+141.032+624.341+141.439+623.956+141.896C623.563+142.358+623.277+142.859+623.044+143.434C622.961+143.64+623.06+143.874+623.265+143.958C623.421+144.02+623.592+143.979+623.703+143.867L623.729+143.84C624.121+143.442+624.613+143.017+625.078+142.886C625.311+142.825+625.483+142.833+625.645+142.948C625.812+143.066+625.94+143.316+626.05+143.574C626.255+144.101+626.379+144.72+625.928+144.964C625.456+145.233+624.763+145.168+624.145+145.086C624.728+145.342+625.373+145.557+626.104+145.349C626.475+145.229+626.771+144.806+626.796+144.425C626.832+144.044+626.777+143.698+626.682+143.359C626.581+143.024+626.441+142.667+626.111+142.374C625.777+142.074+625.253+142.004+624.879+142.12C624.116+142.349+623.601+142.79+623.123+143.302L623.808+143.707C624.177+142.784+624.783+141.824+625.658+141.392C626.096+141.183+626.613+141.076+627.027+141.309C627.461+141.534+627.723+142.066+627.869+142.595" opacity="1" fill="#121b46"/>
<path d="M630.515+137.256C629.914+132.736+627.655+127.996+623.765+125.626C624.385+122.366+622.215+119.066+619.325+117.446C616.435+115.826+612.985+115.586+609.664+115.676C606.355+115.766+603.025+116.156+599.744+115.666C597.994+115.396+596.255+114.886+594.494+115.096C591.655+115.426+589.315+117.616+587.994+120.156C586.345+123.326+586.015+127.156+587.115+130.556C588.135+133.736+590.325+136.576+591.385+139.666C591.506+137.886+591.689+136.109+591.939+134.354C592.257+134.258+592.567+134.089+592.843+133.904C594.655+132.694+596.018+130.851+597.965+129.874C600.569+128.567+603.669+129.05+606.544+129.52C609.418+129.989+612.722+130.348+615.24+128.881C614.365+132.005+615.024+135.52+616.972+138.113C617.755+139.157+618.771+140.139+618.96+141.43C619.043+141.994+618.956+142.568+618.988+143.137C619.018+143.707+619.201+144.317+619.671+144.638C620.236+145.024+621.04+144.852+621.572+144.421C622.104+143.991+622.424+143.36+622.73+142.748C623.365+141.479+623.999+140.21+624.634+138.941C624.754+138.888+624.864+138.845+624.945+138.826C626.815+138.356+628.685+139.766+629.244+141.516C629.695+142.916+629.395+144.496+628.595+145.726C627.925+146.746+626.855+147.696+625.704+148.136C625.414+148.246+624.155+148.466+623.244+148.386C623.145+148.976+622.954+150.156+622.744+151.716C624.755+149.936+627.035+148.366+628.545+146.176C630.315+143.616+630.914+140.346+630.515+137.256" opacity="1" fill="#121b46"/>
<path stroke="#5abeeb" stroke-width="1" d="M700+316.5C700+325.612+692.612+333+683.5+333C674.388+333+667+325.612+667+316.5C667+307.388+674.388+300+683.5+300C692.612+300+700+307.388+700+316.5Z" fill="none" stroke-linecap="butt" opacity="1" stroke-linejoin="miter"/>
<path stroke="#ffffff" stroke-width="1" d="M212+110.5C212+114.642+208.642+118+204.5+118C200.358+118+197+114.642+197+110.5C197+106.358+200.358+103+204.5+103C208.642+103+212+106.358+212+110.5Z" fill="none" stroke-linecap="butt" opacity="1" stroke-linejoin="miter"/>
<path d="M189+92.5C189+94.433+187.433+96+185.5+96C183.567+96+182+94.433+182+92.5C182+90.567+183.567+89+185.5+89C187.433+89+189+90.567+189+92.5" opacity="1" fill="#2ca8df"/>
<path d="M686+285C686+287.209+684.209+289+682+289C679.791+289+678+287.209+678+285C678+282.791+679.791+281+682+281C684.209+281+686+282.791+686+285" opacity="1" fill="#2ca8df"/>
<path d="M677+90.5C677+92.985+674.985+95+672.5+95C670.015+95+668+92.985+668+90.5C668+88.015+670.015+86+672.5+86C674.985+86+677+88.015+677+90.5" opacity="1" fill="#2ca8df"/>
<path stroke="#ffffff" stroke-width="1" d="M354+130.5C354+136.299+349.299+141+343.5+141C337.701+141+333+136.299+333+130.5C333+124.701+337.701+120+343.5+120C349.299+120+354+124.701+354+130.5Z" fill="none" stroke-linecap="butt" opacity="1" stroke-linejoin="miter"/>
<path d="M637.139+86.0078L635.338+84.2058L648.818+70.7268L657.893+79.8028L670.743+66.9518L672.544+68.7538L657.893+83.4048L648.818+74.3298L637.139+86.0078Z" opacity="1" fill="#2ca8df"/>
<path d="M671.163+73.8311L671.165+68.3321L665.666+68.3341L668+66.0001L673.497+66.0001L673.497+71.4971L671.163+73.8311Z" opacity="1" fill="#2ca8df"/>
<path d="M65.3057+211.008L63.5037+209.206L76.9837+195.727L86.0597+204.803L98.9097+191.952L100.712+193.754L86.0597+208.405L76.9837+199.33L65.3057+211.008Z" opacity="1" fill="#2ca8df"/>
<path d="M99.3301+198.831L99.3311+193.332L93.8321+193.334L96.1661+191L101.663+191L101.663+196.497L99.3301+198.831Z" opacity="1" fill="#2ca8df"/>
<path d="M669.693+127.688L665.66+127.688L665.66+125.14L669.693+125.14L669.693+127.688Z" opacity="1" fill="#2ca8df"/>
<path d="M661.997+127.688L645.173+127.688L645.173+125.14L661.997+125.14L661.997+127.688Z" opacity="1" fill="#2ca8df"/>
<path d="M669.693+132.464L645.172+132.464L645.172+129.916L669.693+129.916L669.693+132.464Z" opacity="1" fill="#2ca8df"/>
<path d="M669.693+137.241L645.172+137.241L645.172+134.693L669.693+134.693L669.693+137.241Z" opacity="1" fill="#2ca8df"/>
<path d="M96.1343+128.481L94.3323+126.679L107.812+113.2L117.207+122.594L130.954+108.846L132.756+110.648L117.207+126.197L107.812+116.802L96.1343+128.481Z" opacity="1" fill="#2ca8df"/>
<path d="M99.5327+127.421C99.5327+129.444+97.8927+131.084+95.8707+131.084C93.8477+131.084+92.2087+129.444+92.2087+127.421C92.2087+125.399+93.8477+123.759+95.8707+123.759C97.8927+123.759+99.5327+125.399+99.5327+127.421" opacity="1" fill="#fdb32c"/>
<path d="M110.838+114.842C110.838+116.864+109.198+118.504+107.176+118.504C105.153+118.504+103.513+116.864+103.513+114.842C103.513+112.82+105.153+111.18+107.176+111.18C109.198+111.18+110.838+112.82+110.838+114.842" opacity="1" fill="#fdb32c"/>
<path d="M121.028+124.555C121.028+126.577+119.388+128.217+117.366+128.217C115.343+128.217+113.704+126.577+113.704+124.555C113.704+122.533+115.343+120.893+117.366+120.893C119.388+120.893+121.028+122.533+121.028+124.555" opacity="1" fill="#fdb32c"/>
<path d="M134.562+110.065C134.562+112.087+132.923+113.727+130.901+113.727C128.878+113.727+127.239+112.087+127.239+110.065C127.239+108.043+128.878+106.403+130.901+106.403C132.923+106.403+134.562+108.043+134.562+110.065" opacity="1" fill="#fdb32c"/>
</g>
</svg>
