<svg width="642" height="144" viewBox="0 0 642 144" fill="none" xmlns="http://www.w3.org/2000/svg">
<rect y="10" width="121" height="121" rx="20" fill="#243A5A"/>
<path fill-rule="evenodd" clip-rule="evenodd" d="M61 31C54.7776 31 49.7333 36.0443 49.7333 42.2667V58.7333L33.2667 58.7333C27.0443 58.7333 22 63.7776 22 70C22 76.2224 27.0443 81.2667 33.2667 81.2667H49.7333V97.7333C49.7333 103.956 54.7776 109 61 109C67.2224 109 72.2667 103.956 72.2667 97.7333V81.2667H88.7333C94.9557 81.2667 100 76.2224 100 70C100 63.7776 94.9557 58.7333 88.7333 58.7333L72.2667 58.7333V42.2667C72.2667 36.0443 67.2224 31 61 31Z" fill="#C2C9FB"/>
<path fill-rule="evenodd" clip-rule="evenodd" d="M61 31C54.7776 31 49.7333 36.0443 49.7333 42.2667V58.7333L33.2667 58.7333C27.0443 58.7333 22 63.7776 22 70C22 76.2224 27.0442 81.2667 33.2667 81.2667H61C67.2224 81.2667 72.2667 76.2224 72.2667 70C72.2667 69.8549 72.2639 69.7104 72.2585 69.5667C72.2639 69.4229 72.2667 69.2784 72.2667 69.1333V42.2667C72.2667 36.0443 67.2224 31 61 31Z" fill="#98A4FF"/>
<path d="M219.216 39.088V46.192H190.128V68.752H213.744V75.856H190.128V106H181.392V39.088H219.216ZM226.503 79.504C226.503 74.128 227.591 69.424 229.767 65.392C231.943 61.296 234.919 58.128 238.695 55.888C242.535 53.648 246.791 52.528 251.463 52.528C256.071 52.528 260.071 53.52 263.463 55.504C266.855 57.488 269.383 59.984 271.047 62.992V53.392H279.879V106H271.047V96.208C269.319 99.28 266.727 101.84 263.271 103.888C259.879 105.872 255.911 106.864 251.367 106.864C246.695 106.864 242.471 105.712 238.695 103.408C234.919 101.104 231.943 97.872 229.767 93.712C227.591 89.552 226.503 84.816 226.503 79.504ZM271.047 79.6C271.047 75.632 270.247 72.176 268.647 69.232C267.047 66.288 264.871 64.048 262.119 62.512C259.431 60.912 256.455 60.112 253.191 60.112C249.927 60.112 246.951 60.88 244.263 62.416C241.575 63.952 239.431 66.192 237.831 69.136C236.231 72.08 235.431 75.536 235.431 79.504C235.431 83.536 236.231 87.056 237.831 90.064C239.431 93.008 241.575 95.28 244.263 96.88C246.951 98.416 249.927 99.184 253.191 99.184C256.455 99.184 259.431 98.416 262.119 96.88C264.871 95.28 267.047 93.008 268.647 90.064C270.247 87.056 271.047 83.568 271.047 79.6ZM303.378 61.936C304.914 58.928 307.09 56.592 309.906 54.928C312.786 53.264 316.274 52.432 320.37 52.432V61.456H318.066C308.274 61.456 303.378 66.768 303.378 77.392V106H294.642V53.392H303.378V61.936ZM393.719 52.432C397.815 52.432 401.463 53.296 404.663 55.024C407.863 56.688 410.391 59.216 412.247 62.608C414.103 66 415.031 70.128 415.031 74.992V106H406.391V76.24C406.391 70.992 405.079 66.992 402.455 64.24C399.895 61.424 396.407 60.016 391.991 60.016C387.447 60.016 383.831 61.488 381.143 64.432C378.455 67.312 377.111 71.504 377.111 77.008V106H368.471V76.24C368.471 70.992 367.159 66.992 364.535 64.24C361.975 61.424 358.487 60.016 354.071 60.016C349.527 60.016 345.911 61.488 343.223 64.432C340.535 67.312 339.191 71.504 339.191 77.008V106H330.455V53.392H339.191V60.976C340.919 58.224 343.223 56.112 346.103 54.64C349.047 53.168 352.279 52.432 355.799 52.432C360.215 52.432 364.119 53.424 367.511 55.408C370.903 57.392 373.431 60.304 375.095 64.144C376.567 60.432 378.999 57.552 382.391 55.504C385.783 53.456 389.559 52.432 393.719 52.432ZM426.097 79.504C426.097 74.128 427.185 69.424 429.361 65.392C431.537 61.296 434.513 58.128 438.289 55.888C442.129 53.648 446.385 52.528 451.057 52.528C455.665 52.528 459.665 53.52 463.057 55.504C466.449 57.488 468.977 59.984 470.641 62.992V53.392H479.473V106H470.641V96.208C468.913 99.28 466.321 101.84 462.865 103.888C459.473 105.872 455.505 106.864 450.961 106.864C446.289 106.864 442.065 105.712 438.289 103.408C434.513 101.104 431.537 97.872 429.361 93.712C427.185 89.552 426.097 84.816 426.097 79.504ZM470.641 79.6C470.641 75.632 469.841 72.176 468.241 69.232C466.641 66.288 464.465 64.048 461.713 62.512C459.025 60.912 456.049 60.112 452.785 60.112C449.521 60.112 446.545 60.88 443.857 62.416C441.169 63.952 439.025 66.192 437.425 69.136C435.825 72.08 435.025 75.536 435.025 79.504C435.025 83.536 435.825 87.056 437.425 90.064C439.025 93.008 441.169 95.28 443.857 96.88C446.545 98.416 449.521 99.184 452.785 99.184C456.049 99.184 459.025 98.416 461.713 96.88C464.465 95.28 466.641 93.008 468.241 90.064C469.841 87.056 470.641 83.568 470.641 79.6ZM512.86 106.864C508.828 106.864 505.212 106.192 502.012 104.848C498.812 103.44 496.284 101.52 494.428 99.088C492.572 96.592 491.548 93.744 491.356 90.544H500.38C500.636 93.168 501.852 95.312 504.028 96.976C506.268 98.64 509.18 99.472 512.764 99.472C516.092 99.472 518.716 98.736 520.636 97.264C522.556 95.792 523.516 93.936 523.516 91.696C523.516 89.392 522.492 87.696 520.444 86.608C518.396 85.456 515.228 84.336 510.94 83.248C507.036 82.224 503.836 81.2 501.34 80.176C498.908 79.088 496.796 77.52 495.004 75.472C493.276 73.36 492.412 70.608 492.412 67.216C492.412 64.528 493.212 62.064 494.812 59.824C496.412 57.584 498.684 55.824 501.628 54.544C504.572 53.2 507.932 52.528 511.708 52.528C517.532 52.528 522.236 54 525.82 56.944C529.404 59.888 531.324 63.92 531.58 69.04H522.844C522.652 66.288 521.532 64.08 519.484 62.416C517.5 60.752 514.812 59.92 511.42 59.92C508.284 59.92 505.788 60.592 503.932 61.936C502.076 63.28 501.148 65.04 501.148 67.216C501.148 68.944 501.692 70.384 502.78 71.536C503.932 72.624 505.34 73.52 507.004 74.224C508.732 74.864 511.1 75.6 514.108 76.432C517.884 77.456 520.956 78.48 523.324 79.504C525.692 80.464 527.708 81.936 529.372 83.92C531.1 85.904 531.996 88.496 532.06 91.696C532.06 94.576 531.26 97.168 529.66 99.472C528.06 101.776 525.788 103.6 522.844 104.944C519.964 106.224 516.636 106.864 512.86 106.864ZM589.704 53.392L558.024 130.768H549L559.368 105.424L538.152 53.392H547.848L564.36 96.016L580.68 53.392H589.704ZM617.11 106.864C613.078 106.864 609.462 106.192 606.262 104.848C603.062 103.44 600.534 101.52 598.678 99.088C596.822 96.592 595.798 93.744 595.606 90.544H604.63C604.886 93.168 606.102 95.312 608.278 96.976C610.518 98.64 613.43 99.472 617.014 99.472C620.342 99.472 622.966 98.736 624.886 97.264C626.806 95.792 627.766 93.936 627.766 91.696C627.766 89.392 626.742 87.696 624.694 86.608C622.646 85.456 619.478 84.336 615.19 83.248C611.286 82.224 608.086 81.2 605.59 80.176C603.158 79.088 601.046 77.52 599.254 75.472C597.526 73.36 596.662 70.608 596.662 67.216C596.662 64.528 597.462 62.064 599.062 59.824C600.662 57.584 602.934 55.824 605.878 54.544C608.822 53.2 612.182 52.528 615.958 52.528C621.782 52.528 626.486 54 630.07 56.944C633.654 59.888 635.574 63.92 635.83 69.04H627.094C626.902 66.288 625.782 64.08 623.734 62.416C621.75 60.752 619.062 59.92 615.67 59.92C612.534 59.92 610.038 60.592 608.182 61.936C606.326 63.28 605.398 65.04 605.398 67.216C605.398 68.944 605.942 70.384 607.03 71.536C608.182 72.624 609.59 73.52 611.254 74.224C612.982 74.864 615.35 75.6 618.358 76.432C622.134 77.456 625.206 78.48 627.574 79.504C629.942 80.464 631.958 81.936 633.622 83.92C635.35 85.904 636.246 88.496 636.31 91.696C636.31 94.576 635.51 97.168 633.91 99.472C632.31 101.776 630.038 103.6 627.094 104.944C624.214 106.224 620.886 106.864 617.11 106.864Z" fill="#243A5A"/>
</svg>
