<svg width="121" height="121" viewBox="0 0 121 121" fill="none" xmlns="http://www.w3.org/2000/svg">
<rect width="121" height="121" rx="20" fill="#243A5A"/>
<path fill-rule="evenodd" clip-rule="evenodd" d="M61 21C54.7776 21 49.7333 26.0443 49.7333 32.2667V48.7333L33.2667 48.7333C27.0443 48.7333 22 53.7776 22 60C22 66.2224 27.0443 71.2667 33.2667 71.2667H49.7333V87.7333C49.7333 93.9557 54.7776 99 61 99C67.2224 99 72.2667 93.9557 72.2667 87.7333V71.2667H88.7333C94.9557 71.2667 100 66.2224 100 60C100 53.7776 94.9557 48.7333 88.7333 48.7333L72.2667 48.7333V32.2667C72.2667 26.0443 67.2224 21 61 21Z" fill="#34FEC1"/>
<path fill-rule="evenodd" clip-rule="evenodd" d="M61 21C54.7776 21 49.7333 26.0443 49.7333 32.2667V48.7333L33.2667 48.7333C27.0443 48.7333 22 53.7776 22 60C22 66.2224 27.0442 71.2667 33.2667 71.2667H61C67.2224 71.2667 72.2667 66.2224 72.2667 60C72.2667 59.8549 72.2639 59.7104 72.2585 59.5667C72.2639 59.4229 72.2667 59.2784 72.2667 59.1333V32.2667C72.2667 26.0443 67.2224 21 61 21Z" fill="#2DCC9C"/>
</svg>
