<svg width="749" height="75" viewBox="0 0 749 75" fill="none" xmlns="http://www.w3.org/2000/svg">
<path d="M421.375 0.75592H371.879C365.129 0.75592 359.658 6.22759 359.658 12.9772V62.4736C359.658 69.2232 365.129 74.6949 371.879 74.6949H421.375C428.125 74.6949 433.597 69.2232 433.597 62.4736V12.9772C433.597 6.22759 428.125 0.75592 421.375 0.75592Z" fill="#243A5A"/>
<path fill-rule="evenodd" clip-rule="evenodd" d="M396.933 13.5883C393.131 13.5883 390.048 16.6707 390.048 20.473V30.5352H379.986C376.184 30.5352 373.101 33.6176 373.101 37.4199C373.101 41.2222 376.184 44.3046 379.986 44.3046H390.048V54.3668C390.048 58.1692 393.131 61.2515 396.933 61.2515C400.735 61.2515 403.818 58.1692 403.818 54.3668V44.3046H413.88C417.682 44.3046 420.764 41.2222 420.764 37.4199C420.764 33.6176 417.682 30.5352 413.88 30.5352H403.818V20.473C403.818 16.6707 400.735 13.5883 396.933 13.5883Z" fill="#C2C9FB"/>
<path fill-rule="evenodd" clip-rule="evenodd" d="M396.933 13.5883C393.131 13.5883 390.048 16.6707 390.048 20.473V30.5352H379.986C376.184 30.5352 373.101 33.6176 373.101 37.4199C373.101 41.2222 376.184 44.3046 379.986 44.3046H396.933C400.735 44.3046 403.818 41.2222 403.818 37.4199C403.818 37.3312 403.816 37.2429 403.813 37.1551C403.816 37.0672 403.818 36.9789 403.818 36.8903V20.473C403.818 16.6707 400.735 13.5883 396.933 13.5883Z" fill="#98A4FF"/>
<path d="M493.613 18.5306V22.8717H475.839V36.6573H490.269V40.9983H475.839V59.4183H470.5V18.5306H493.613ZM498.066 43.2275C498.066 39.9424 498.731 37.0679 500.061 34.6041C501.39 32.1012 503.209 30.1653 505.516 28.7965C507.863 27.4278 510.463 26.7434 513.318 26.7434C516.134 26.7434 518.578 27.3495 520.651 28.5619C522.724 29.7743 524.269 31.2995 525.285 33.1376V27.2713H530.682V59.4183H525.285V53.4347C524.229 55.3119 522.646 56.8763 520.534 58.1277C518.461 59.3401 516.036 59.9463 513.26 59.9463C510.405 59.9463 507.824 59.2423 505.516 57.8344C503.209 56.4265 501.39 54.4515 500.061 51.9095C498.731 49.3675 498.066 46.4735 498.066 43.2275ZM525.285 43.2861C525.285 40.8614 524.797 38.7496 523.819 36.9506C522.841 35.1516 521.511 33.7828 519.83 32.8443C518.187 31.8665 516.369 31.3777 514.374 31.3777C512.38 31.3777 510.561 31.847 508.919 32.7856C507.276 33.7242 505.966 35.093 504.988 36.892C504.01 38.6909 503.522 40.8028 503.522 43.2275C503.522 45.6913 504.01 47.8423 504.988 49.6803C505.966 51.4793 507.276 52.8677 508.919 53.8454C510.561 54.784 512.38 55.2533 514.374 55.2533C516.369 55.2533 518.187 54.784 519.83 53.8454C521.511 52.8677 522.841 51.4793 523.819 49.6803C524.797 47.8423 525.285 45.7109 525.285 43.2861ZM545.042 32.4923C545.98 30.6542 547.31 29.2267 549.031 28.2099C550.791 27.1931 552.922 26.6847 555.425 26.6847V32.199H554.017C548.034 32.199 545.042 35.4449 545.042 41.9369V59.4183H539.703V27.2713H545.042V32.4923ZM600.246 26.6847C602.749 26.6847 604.978 27.2127 606.934 28.2686C608.889 29.2854 610.434 30.8302 611.568 32.9029C612.702 34.9756 613.269 37.4981 613.269 40.4704V59.4183H607.989V41.233C607.989 38.0261 607.188 35.5818 605.584 33.9002C604.02 32.1794 601.889 31.319 599.19 31.319C596.413 31.319 594.204 32.2185 592.561 34.0175C590.919 35.7774 590.097 38.339 590.097 41.7023V59.4183H584.818V41.233C584.818 38.0261 584.016 35.5818 582.413 33.9002C580.848 32.1794 578.717 31.319 576.019 31.319C573.242 31.319 571.032 32.2185 569.39 34.0175C567.747 35.7774 566.926 38.339 566.926 41.7023V59.4183H561.588V27.2713H566.926V31.9057C567.982 30.224 569.39 28.9334 571.15 28.0339C572.949 27.1344 574.923 26.6847 577.074 26.6847C579.773 26.6847 582.158 27.2909 584.231 28.5032C586.304 29.7156 587.849 31.495 588.866 33.8415C589.765 31.5732 591.251 29.8134 593.324 28.5619C595.397 27.3104 597.704 26.6847 600.246 26.6847ZM620.031 43.2275C620.031 39.9424 620.696 37.0679 622.026 34.6041C623.355 32.1012 625.174 30.1653 627.481 28.7965C629.828 27.4278 632.428 26.7434 635.283 26.7434C638.099 26.7434 640.543 27.3495 642.616 28.5619C644.689 29.7743 646.234 31.2995 647.25 33.1376V27.2713H652.647V59.4183H647.25V53.4347C646.195 55.3119 644.611 56.8763 642.499 58.1277C640.426 59.3401 638.001 59.9463 635.225 59.9463C632.37 59.9463 629.789 59.2423 627.481 57.8344C625.174 56.4265 623.355 54.4515 622.026 51.9095C620.696 49.3675 620.031 46.4735 620.031 43.2275ZM647.25 43.2861C647.25 40.8614 646.762 38.7496 645.784 36.9506C644.806 35.1516 643.477 33.7828 641.795 32.8443C640.152 31.8665 638.334 31.3777 636.339 31.3777C634.345 31.3777 632.526 31.847 630.884 32.7856C629.241 33.7242 627.931 35.093 626.953 36.892C625.976 38.6909 625.487 40.8028 625.487 43.2275C625.487 45.6913 625.976 47.8423 626.953 49.6803C627.931 51.4793 629.241 52.8677 630.884 53.8454C632.526 54.784 634.345 55.2533 636.339 55.2533C638.334 55.2533 640.152 54.784 641.795 53.8454C643.477 52.8677 644.806 51.4793 645.784 49.6803C646.762 47.8423 647.25 45.7109 647.25 43.2861ZM673.049 59.9463C670.585 59.9463 668.376 59.5356 666.42 58.7143C664.465 57.854 662.92 56.6807 661.786 55.1946C660.652 53.6694 660.026 51.9291 659.909 49.9737H665.423C665.579 51.5771 666.322 52.8872 667.652 53.904C669.021 54.9208 670.8 55.4293 672.99 55.4293C675.024 55.4293 676.627 54.9795 677.801 54.08C678.974 53.1805 679.561 52.0464 679.561 50.6776C679.561 49.2697 678.935 48.2333 677.683 47.5685C676.432 46.8646 674.496 46.1802 671.876 45.5153C669.49 44.8896 667.535 44.2639 666.01 43.6381C664.523 42.9733 663.233 42.0151 662.138 40.7637C661.082 39.4731 660.554 37.7914 660.554 35.7187C660.554 34.0762 661.043 32.5705 662.021 31.2017C662.998 29.8329 664.387 28.7574 666.186 27.9753C667.985 27.154 670.038 26.7434 672.345 26.7434C675.904 26.7434 678.778 27.6429 680.968 29.4418C683.159 31.2408 684.332 33.7046 684.488 36.8333H679.15C679.033 35.1516 678.348 33.8024 677.097 32.7856C675.884 31.7688 674.242 31.2604 672.169 31.2604C670.253 31.2604 668.728 31.671 667.593 32.4923C666.459 33.3135 665.892 34.389 665.892 35.7187C665.892 36.7746 666.225 37.6546 666.89 38.3585C667.593 39.0234 668.454 39.5709 669.471 40.0011C670.527 40.3921 671.974 40.8419 673.812 41.3503C676.119 41.976 677.996 42.6018 679.443 43.2275C680.89 43.8141 682.122 44.7136 683.139 45.926C684.195 47.1383 684.742 48.7222 684.782 50.6776C684.782 52.4375 684.293 54.0214 683.315 55.4293C682.337 56.8371 680.949 57.9517 679.15 58.773C677.39 59.5552 675.356 59.9463 673.049 59.9463ZM720.006 27.2713L700.647 74.5532H695.133L701.469 59.0663L688.504 27.2713H694.429L704.519 53.3174L714.492 27.2713H720.006ZM736.753 59.9463C734.289 59.9463 732.079 59.5356 730.124 58.7143C728.168 57.854 726.624 56.6807 725.49 55.1946C724.355 53.6694 723.73 51.9291 723.612 49.9737H729.127C729.283 51.5771 730.026 52.8872 731.356 53.904C732.725 54.9208 734.504 55.4293 736.694 55.4293C738.728 55.4293 740.331 54.9795 741.504 54.08C742.678 53.1805 743.264 52.0464 743.264 50.6776C743.264 49.2697 742.638 48.2333 741.387 47.5685C740.136 46.8646 738.2 46.1802 735.579 45.5153C733.194 44.8896 731.238 44.2639 729.713 43.6381C728.227 42.9733 726.937 42.0151 725.842 40.7637C724.786 39.4731 724.258 37.7914 724.258 35.7187C724.258 34.0762 724.746 32.5705 725.724 31.2017C726.702 29.8329 728.09 28.7574 729.889 27.9753C731.688 27.154 733.741 26.7434 736.049 26.7434C739.608 26.7434 742.482 27.6429 744.672 29.4418C746.862 31.2408 748.035 33.7046 748.192 36.8333H742.854C742.736 35.1516 742.052 33.8024 740.8 32.7856C739.588 31.7688 737.945 31.2604 735.873 31.2604C733.956 31.2604 732.431 31.671 731.297 32.4923C730.163 33.3135 729.596 34.389 729.596 35.7187C729.596 36.7746 729.928 37.6546 730.593 38.3585C731.297 39.0234 732.157 39.5709 733.174 40.0011C734.23 40.3921 735.677 40.8419 737.515 41.3503C739.823 41.976 741.7 42.6018 743.147 43.2275C744.594 43.8141 745.826 44.7136 746.843 45.926C747.899 47.1383 748.446 48.7222 748.485 50.6776C748.485 52.4375 747.996 54.0214 747.019 55.4293C746.041 56.8371 744.653 57.9517 742.854 58.773C741.094 59.5552 739.06 59.9463 736.753 59.9463Z" fill="#243A5A"/>
<path d="M5.94949 59.8135V17.15H20.3651C23.7121 17.15 26.448 17.7541 28.5728 18.9624C30.7115 20.1567 32.2948 21.7747 33.3225 23.8162C34.3502 25.8577 34.864 28.1353 34.864 30.649C34.864 33.1627 34.3502 35.4473 33.3225 37.5027C32.3087 39.5581 30.7393 41.1969 28.6145 42.419C26.4896 43.6272 23.7676 44.2314 20.4484 44.2314H10.1158V39.6484H20.2818C22.5733 39.6484 24.4134 39.2526 25.8022 38.4609C27.191 37.6693 28.1978 36.6 28.8228 35.2529C29.4616 33.8918 29.7811 32.3572 29.7811 30.649C29.7811 28.9408 29.4616 27.4132 28.8228 26.066C28.1978 24.7189 27.184 23.6634 25.7814 22.8996C24.3787 22.1219 22.5177 21.733 20.1984 21.733H11.1158V59.8135H5.94949ZM55.175 60.4802C52.2863 60.4802 49.7518 59.7927 47.5714 58.4178C45.4049 57.0429 43.7106 55.1194 42.4885 52.6474C41.2802 50.1754 40.6761 47.2867 40.6761 43.9814C40.6761 40.6483 41.2802 37.7388 42.4885 35.2529C43.7106 32.7669 45.4049 30.8365 47.5714 29.4616C49.7518 28.0867 52.2863 27.3993 55.175 27.3993C58.0637 27.3993 60.5913 28.0867 62.7578 29.4616C64.9382 30.8365 66.6325 32.7669 67.8408 35.2529C69.0629 37.7388 69.6739 40.6483 69.6739 43.9814C69.6739 47.2867 69.0629 50.1754 67.8408 52.6474C66.6325 55.1194 64.9382 57.0429 62.7578 58.4178C60.5913 59.7927 58.0637 60.4802 55.175 60.4802ZM55.175 56.0638C57.3693 56.0638 59.1747 55.5014 60.5913 54.3764C62.0078 53.2515 63.0564 51.7725 63.7369 49.9393C64.4174 48.1061 64.7576 46.1201 64.7576 43.9814C64.7576 41.8426 64.4174 39.8497 63.7369 38.0026C63.0564 36.1556 62.0078 34.6626 60.5913 33.5238C59.1747 32.385 57.3693 31.8156 55.175 31.8156C52.9807 31.8156 51.1753 32.385 49.7588 33.5238C48.3422 34.6626 47.2937 36.1556 46.6132 38.0026C45.9326 39.8497 45.5924 41.8426 45.5924 43.9814C45.5924 46.1201 45.9326 48.1061 46.6132 49.9393C47.2937 51.7725 48.3422 53.2515 49.7588 54.3764C51.1753 55.5014 52.9807 56.0638 55.175 56.0638ZM83.3396 59.8135L73.5903 27.8159H78.7566L85.6728 52.3141H86.0061L92.8389 27.8159H98.0885L104.838 52.2308H105.171L112.087 27.8159H117.254L107.504 59.8135H102.672L95.672 35.232H95.1721L88.1726 59.8135H83.3396ZM136.081 60.4802C132.997 60.4802 130.338 59.7996 128.102 58.4386C125.88 57.0637 124.165 55.1472 122.956 52.6891C121.762 50.217 121.165 47.3422 121.165 44.0647C121.165 40.7872 121.762 37.8985 122.956 35.3987C124.165 32.885 125.845 30.9268 127.998 29.5241C130.164 28.1075 132.692 27.3993 135.581 27.3993C137.247 27.3993 138.893 27.677 140.518 28.2325C142.143 28.788 143.622 29.6908 144.955 30.9407C146.288 32.1767 147.351 33.8155 148.142 35.857C148.934 37.8985 149.33 40.4122 149.33 43.3981V45.4813H124.665V41.2316H144.33C144.33 39.4262 143.969 37.8152 143.247 36.3986C142.538 34.982 141.525 33.8641 140.205 33.0447C138.9 32.2253 137.358 31.8156 135.581 31.8156C133.622 31.8156 131.928 32.3017 130.498 33.2738C129.081 34.2321 127.991 35.482 127.227 37.0236C126.463 38.5651 126.081 40.2178 126.081 41.9815V44.8146C126.081 47.2311 126.498 49.2796 127.331 50.96C128.178 52.6266 129.352 53.8973 130.852 54.7722C132.352 55.6333 134.095 56.0638 136.081 56.0638C137.372 56.0638 138.539 55.8833 139.58 55.5222C140.636 55.1472 141.545 54.5917 142.309 53.8556C143.073 53.1057 143.663 52.1752 144.08 51.0642L148.83 52.3974C148.33 54.0084 147.489 55.425 146.309 56.6471C145.128 57.8553 143.67 58.7997 141.934 59.4802C140.198 60.1468 138.247 60.4802 136.081 60.4802ZM156.808 59.8135V27.8159H161.558V32.6489H161.891C162.474 31.0657 163.53 29.781 165.058 28.795C166.585 27.809 168.307 27.3159 170.224 27.3159C170.585 27.3159 171.036 27.3229 171.578 27.3368C172.12 27.3507 172.529 27.3715 172.807 27.3993V32.3989C172.64 32.3572 172.258 32.2947 171.661 32.2114C171.078 32.1142 170.46 32.0656 169.807 32.0656C168.252 32.0656 166.863 32.392 165.641 33.0447C164.433 33.6835 163.474 34.5723 162.766 35.7111C162.072 36.8361 161.724 38.1207 161.724 39.565V59.8135H156.808ZM191.076 60.4802C187.993 60.4802 185.334 59.7996 183.098 58.4386C180.876 57.0637 179.161 55.1472 177.952 52.6891C176.758 50.217 176.161 47.3422 176.161 44.0647C176.161 40.7872 176.758 37.8985 177.952 35.3987C179.161 32.885 180.841 30.9268 182.994 29.5241C185.16 28.1075 187.688 27.3993 190.576 27.3993C192.243 27.3993 193.889 27.677 195.514 28.2325C197.138 28.788 198.618 29.6908 199.951 30.9407C201.284 32.1767 202.346 33.8155 203.138 35.857C203.93 37.8985 204.325 40.4122 204.325 43.3981V45.4813H179.661V41.2316H199.326C199.326 39.4262 198.965 37.8152 198.243 36.3986C197.534 34.982 196.52 33.8641 195.201 33.0447C193.896 32.2253 192.354 31.8156 190.576 31.8156C188.618 31.8156 186.924 32.3017 185.494 33.2738C184.077 34.2321 182.987 35.482 182.223 37.0236C181.459 38.5651 181.077 40.2178 181.077 41.9815V44.8146C181.077 47.2311 181.494 49.2796 182.327 50.96C183.174 52.6266 184.348 53.8973 185.848 54.7722C187.348 55.6333 189.09 56.0638 191.076 56.0638C192.368 56.0638 193.535 55.8833 194.576 55.5222C195.632 55.1472 196.541 54.5917 197.305 53.8556C198.069 53.1057 198.659 52.1752 199.076 51.0642L203.826 52.3974C203.326 54.0084 202.485 55.425 201.305 56.6471C200.124 57.8553 198.666 58.7997 196.93 59.4802C195.194 60.1468 193.243 60.4802 191.076 60.4802ZM223.887 60.4802C221.22 60.4802 218.866 59.8066 216.825 58.4595C214.783 57.0985 213.186 55.1819 212.033 52.7099C210.881 50.224 210.304 47.2867 210.304 43.898C210.304 40.5372 210.881 37.6207 212.033 35.1487C213.186 32.6767 214.79 30.7671 216.845 29.4199C218.901 28.0728 221.276 27.3993 223.97 27.3993C226.053 27.3993 227.699 27.7465 228.907 28.4409C230.129 29.1214 231.06 29.8991 231.698 30.774C232.351 31.6351 232.858 32.3433 233.219 32.8989H233.636V17.15H238.552V59.8135H233.802V54.8972H233.219C232.858 55.4805 232.344 56.2166 231.678 57.1054C231.011 57.9803 230.06 58.765 228.824 59.4594C227.588 60.1399 225.942 60.4802 223.887 60.4802ZM224.553 56.0638C226.525 56.0638 228.192 55.55 229.553 54.5223C230.914 53.4807 231.948 52.0433 232.657 50.2101C233.365 48.363 233.719 46.2312 233.719 43.8147C233.719 41.426 233.372 39.3359 232.678 37.5443C231.983 35.7389 230.955 34.3363 229.594 33.3363C228.233 32.3225 226.553 31.8156 224.553 31.8156C222.47 31.8156 220.734 32.3503 219.345 33.4197C217.97 34.4751 216.936 35.9125 216.241 37.7318C215.561 39.5373 215.22 41.5649 215.22 43.8147C215.22 46.0923 215.568 48.1616 216.262 50.0226C216.97 51.8697 218.012 53.3418 219.387 54.4389C220.776 55.5222 222.498 56.0638 224.553 56.0638ZM265.404 59.8135V17.15H270.321V32.8989H270.737C271.098 32.3433 271.598 31.6351 272.237 30.774C272.89 29.8991 273.82 29.1214 275.029 28.4409C276.251 27.7465 277.903 27.3993 279.987 27.3993C282.681 27.3993 285.056 28.0728 287.111 29.4199C289.166 30.7671 290.77 32.6767 291.923 35.1487C293.076 37.6207 293.652 40.5372 293.652 43.898C293.652 47.2867 293.076 50.224 291.923 52.7099C290.77 55.1819 289.173 57.0985 287.132 58.4595C285.09 59.8066 282.736 60.4802 280.07 60.4802C278.014 60.4802 276.369 60.1399 275.133 59.4594C273.897 58.765 272.945 57.9803 272.279 57.1054C271.612 56.2166 271.098 55.4805 270.737 54.8972H270.154V59.8135H265.404ZM270.237 43.8147C270.237 46.2312 270.591 48.363 271.3 50.2101C272.008 52.0433 273.043 53.4807 274.404 54.5223C275.765 55.55 277.431 56.0638 279.403 56.0638C281.459 56.0638 283.174 55.5222 284.549 54.4389C285.937 53.3418 286.979 51.8697 287.673 50.0226C288.382 48.1616 288.736 46.0923 288.736 43.8147C288.736 41.5649 288.389 39.5373 287.694 37.7318C287.014 35.9125 285.979 34.4751 284.59 33.4197C283.215 32.3503 281.486 31.8156 279.403 31.8156C277.403 31.8156 275.723 32.3225 274.362 33.3363C273.001 34.3363 271.973 35.7389 271.279 37.5443C270.584 39.3359 270.237 41.426 270.237 43.8147ZM303.193 71.8127C302.36 71.8127 301.617 71.7432 300.964 71.6043C300.311 71.4793 299.86 71.3544 299.61 71.2294L300.86 66.8963C302.054 67.2019 303.11 67.313 304.026 67.2297C304.943 67.1463 305.755 66.7366 306.464 66.0006C307.186 65.2784 307.846 64.1049 308.443 62.48L309.359 59.9802L297.527 27.8159H302.86L311.693 53.314H312.026L320.859 27.8159H326.191L312.609 64.4799C311.998 66.1325 311.241 67.5005 310.338 68.5837C309.436 69.6809 308.387 70.4933 307.193 71.021C306.012 71.5488 304.679 71.8127 303.193 71.8127Z" fill="black" fill-opacity="0.6"/>
</svg>
